<?xml version="1.0" encoding="utf-8"?>
<!-- Generator: Adobe Illustrator 27.5.0, SVG Export Plug-In . SVG Version: 6.00 Build 0)  -->
<svg version="1.1" id="Capa_1" xmlns="http://www.w3.org/2000/svg" xmlns:xlink="http://www.w3.org/1999/xlink" x="0px" y="0px"
	 viewBox="0 0 2197 2049" style="enable-background:new 0 0 2197 2049;" xml:space="preserve">
<g>
	<rect x="-0.005" y="0.002" style="opacity:0.6;fill:#DAEDF6;" width="2196.211" height="2048.983"/>
	<path style="opacity:0.6;fill:#B4E3F6;" d="M1659.943,246.609c-326.217-86.902-640.598-79.064-970.14-26.614
		c-177.296,28.219-390.038,67.195-481.099,280.967c-63.816,149.808,11.46,190.652,52.048,311.547
		c39.488,117.596-42.243,192.215-87.092,282.743c-47.723,96.34-78.491,245.224-43.497,353.198
		c137.338,423.761,730.673,438.47,1034.407,411.249c264.934-23.745,784.099-4.994,897.288-382.972
		c60.055-200.576-39.706-406.247-39.439-608.572c0.173-131.511,27.568-261.496-34.43-381.34
		C1913.719,343.259,1791.122,281.554,1659.943,246.609z"/>
</g>
<path style="opacity:0.6;fill:#D9D1E4;" d="M1649.355,487.233v-47.872h-38.279c-0.674-4.253-1.531-8.44-2.527-12.577l35.733-14.105
	l-17.579-44.527l-36.164,14.277c-3.062-5.17-6.382-10.167-9.984-14.948l27.598-27.598l-33.85-33.848l-27.855,27.855
	c-4.023-2.941-8.185-5.706-12.476-8.272l15.131-36.437l-44.21-18.359l-15.206,36.61c-4.875-1.196-9.825-2.187-14.864-2.933v-39.669
	h-47.871v39.669c-4.093,0.607-8.126,1.395-12.114,2.299l-14.567-36.892l-44.527,17.579l14.497,36.731
	c-5.153,2.96-10.132,6.184-14.909,9.674l-27.855-27.855l-33.855,33.848l27.597,27.598c-3.032,4.028-5.876,8.21-8.527,12.517
	l-35.916-14.913l-18.362,44.21l35.475,14.73c-1.308,5.021-2.368,10.139-3.191,15.337h-38.279v47.872h37.819
	c0.599,4.34,1.362,8.624,2.299,12.85l-35.039,13.833l17.584,44.527l34.613-13.67c3.092,5.445,6.471,10.695,10.142,15.726
	l-26.214,26.21l33.855,33.85l25.948-25.95c4.271,3.213,8.7,6.228,13.278,9.015l-14.027,33.788l44.21,18.357l13.957-33.607
	c5.272,1.338,10.648,2.413,16.108,3.221v36.382h47.871v-36.382c4.509-0.667,8.933-1.546,13.308-2.576l13.378,33.879l44.527-17.579
	l-13.442-34.05c5.46-3.191,10.732-6.661,15.756-10.447l25.952,25.95l33.85-33.85l-26.21-26.21c3.112-4.266,6.025-8.688,8.715-13.251
	l34.35,14.262l18.356-44.212l-34.766-14.433c1.229-5.123,2.21-10.335,2.943-15.632H1649.355z M1450.893,557.046
	c-51.781,0-93.751-41.973-93.751-93.749c0-51.776,41.97-93.749,93.751-93.749c51.776,0,93.746,41.973,93.746,93.749
	C1544.639,515.073,1502.669,557.046,1450.893,557.046z"/>
<path style="opacity:0.6;fill:#989ECC;" d="M1123.58,496.518V445.8h-19.987c-0.902-6.275-2.101-12.451-3.637-18.498l18.481-7.583
	l-19.264-46.92l-18.56,7.62c-3.389-5.745-7.065-11.297-11.059-16.606l14.19-14.19l-35.862-35.864l-14.214,14.215
	c-5.01-3.755-10.231-7.236-15.627-10.457l7.759-18.563l-46.797-19.556l-7.749,18.543c-6.381-1.647-12.912-2.921-19.551-3.862
	v-20.158h-50.716v20.158c-6.263,0.887-12.417,2.081-18.446,3.597l-7.64-18.607l-46.916,19.259l7.64,18.624
	c-5.738,3.379-11.297,7.041-16.608,11.021l-14.209-14.215l-35.862,35.864l14.19,14.19c-3.771,5.009-7.264,10.226-10.504,15.622
	l-18.491-7.732l-19.56,46.796l18.421,7.7c-1.665,6.399-2.953,12.944-3.904,19.601h-19.992v50.718h19.942
	c0.887,6.287,2.081,12.471,3.597,18.53l-18.392,7.554l19.259,46.917l18.377-7.546c3.399,5.775,7.075,11.361,11.079,16.699
	l-14.022,14.022l35.862,35.864l14.001-13.999c5.034,3.785,10.281,7.3,15.706,10.548l-7.63,18.255l46.801,19.558l7.605-18.206
	c6.427,1.667,13.006,2.953,19.695,3.902v19.779h50.716v-19.779c6.302-0.895,12.51-2.098,18.58-3.63l7.501,18.263l46.921-19.259
	l-7.521-18.317c5.777-3.406,11.356-7.103,16.697-11.116l14.002,13.999l35.862-35.864l-14.022-14.022
	c3.775-5.036,7.263-10.288,10.504-15.716l18.322,7.657l19.556-46.796l-18.327-7.659c1.655-6.409,2.923-12.971,3.86-19.64H1123.58z
	 M926.346,581.428c-60.793,0-110.081-49.284-110.081-110.079c0-60.793,49.288-110.077,110.081-110.077
	c60.794,0,110.077,49.284,110.077,110.077C1036.423,532.144,987.14,581.428,926.346,581.428z"/>
<path style="opacity:0.6;fill:#989ECC;" d="M1935.544,1047.034v-65.53h-25.833c-1.159-8.111-2.715-16.088-4.687-23.902l23.871-9.8
	l-24.887-60.622l-23.975,9.842c-4.385-7.422-9.136-14.594-14.299-21.454l18.332-18.335l-46.336-46.338l-18.362,18.364
	c-6.471-4.853-13.219-9.349-20.195-13.511l10.028-23.983l-60.466-25.269l-10.014,23.958c-8.249-2.13-16.682-3.773-25.263-4.989
	v-26.044h-65.53v26.044c-8.086,1.147-16.038,2.688-23.826,4.65l-9.875-24.047l-60.62,24.887l9.875,24.062
	c-7.417,4.368-14.596,9.099-21.453,14.242l-18.367-18.364l-46.341,46.338l18.332,18.335c-4.865,6.471-9.384,13.212-13.561,20.185
	l-23.896-9.991l-25.274,60.466l23.807,9.947c-2.15,8.269-3.82,16.727-5.049,25.328h-25.828v65.53h25.764
	c1.145,8.123,2.685,16.115,4.652,23.943l-23.773,9.758l24.887,60.622l23.748-9.748c4.395,7.459,9.141,14.681,14.314,21.575
	l-18.124,18.119l46.341,46.338l18.089-18.089c6.501,4.893,13.288,9.434,20.299,13.633l-9.855,23.586l60.461,25.269l9.83-23.519
	c8.309,2.15,16.801,3.815,25.442,5.041v25.556h65.53v-25.556c8.15-1.157,16.167-2.71,24.02-4.692l9.681,23.599l60.625-24.887
	l-9.711-23.666c7.462-4.402,14.676-9.178,21.568-14.364l18.089,18.089l46.336-46.338l-18.114-18.119
	c4.875-6.505,9.394-13.293,13.576-20.304l23.673,9.892l25.269-60.464l-23.683-9.897c2.141-8.282,3.775-16.761,4.984-25.377H1935.544
	z M1680.698,1156.744c-78.556,0-142.237-63.679-142.237-142.23c0-78.553,63.682-142.23,142.237-142.23
	c78.55,0,142.227,63.677,142.227,142.23C1822.926,1093.064,1759.249,1156.744,1680.698,1156.744z"/>
<g>
	<rect x="838.501" y="481.622" style="fill:#FFFFFF;" width="897.511" height="1184.547"/>
	<rect x="911.453" y="566.522" style="fill:#976EA2;" width="756.492" height="56.599"/>
	<rect x="911.453" y="647.379" style="fill:#4965A2;" width="523.357" height="36.384"/>
	<rect x="1190.493" y="1197.201" style="fill:#4965A2;" width="477.453" height="36.384"/>
	<rect x="1192.291" y="1263.687" style="fill:#C2C4C6;" width="475.654" height="36.384"/>
	<rect x="910.631" y="1115.442" style="fill:#C2C4C6;" width="427.138" height="36.384"/>
	<rect x="910.631" y="1060.188" style="fill:#C2C4C6;" width="400.185" height="36.384"/>
	<rect x="912.424" y="1002.688" style="fill:#C2C4C6;" width="330.107" height="36.384"/>
	<rect x="1190.493" y="1327.478" style="fill:#C2C4C6;" width="477.453" height="36.384"/>
	<rect x="911.453" y="1396.657" style="fill:#C2C4C6;" width="466.81" height="36.384"/>
	<rect x="911.453" y="1461.344" style="fill:#C2C4C6;" width="466.81" height="36.387"/>
	<rect x="911.453" y="1529.629" style="fill:#C2C4C6;" width="466.81" height="36.384"/>
	<rect x="911.453" y="724.193" style="fill:#C2C4C6;" width="756.492" height="32.341"/>
	<rect x="911.453" y="1193.158" style="opacity:0.7;fill:#916EA2;" width="212.063" height="177.883"/>
	<polyline style="fill:none;stroke:#4965A2;stroke-width:5.0735;stroke-miterlimit:10;" points="996.806,959.922 1123.491,856.6 
		1272.631,824.256 	"/>
	<rect x="972.549" y="935.664" style="fill:#E27CA3;" width="48.516" height="48.516"/>
	<rect x="1247.476" y="802.694" style="fill:#E27CA3;" width="48.516" height="48.516"/>
	<rect x="1099.228" y="832.343" style="fill:#E27CA3;" width="48.521" height="48.516"/>
	<g>
		<path style="opacity:0.7;fill:#4865A2;" d="M1484.659,818.479c-1.026-0.022-2.056-0.037-3.087-0.037
			c-79.135,0-143.476,63.328-145.121,142.072h148.208V818.479z"/>
		<path style="opacity:0.7;fill:#916EA2;" d="M1358.073,988.309c-0.02,1.028-0.04,2.056-0.04,3.089
			c0,80.171,64.985,145.16,145.16,145.16c80.166,0,145.161-64.99,145.161-145.16c0-1.033-0.02-2.061-0.04-3.089H1358.073z"/>
		<path style="fill:#4965A2;" d="M1648.315,988.309h-145.171v148.25c0.02,0,0.035,0,0.05,0c80.166,0,145.161-64.99,145.161-145.16
			C1648.354,990.365,1648.335,989.337,1648.315,988.309z"/>
		<path style="fill:#E76C63;" d="M1648.315,988.309c-1.605-76.683-68.056-138.737-144.338-141.933v141.933H1648.315z"/>
	</g>
	<g>
		<g>
			<rect x="1617.006" y="1396.823" style="opacity:0.7;fill:#916EA2;" width="50.939" height="170.635"/>
			<rect x="1547.885" y="1436.851" style="opacity:0.7;fill:#4865A2;" width="50.943" height="130.606"/>
			<rect x="1407.262" y="1514.181" style="opacity:0.7;fill:#4865A2;" width="50.943" height="53.277"/>
			<rect x="1475.191" y="1474.149" style="opacity:0.7;fill:#976EA2;" width="50.943" height="93.308"/>
		</g>
	</g>
</g>
<g>
	<g>
		<g>
			<g>
				<path style="fill:#EAB1B8;" d="M913.742,808.357c-53.233-64.712-70.832-61.13-105.063-86.047
					c-50.121-36.486-133.75-51.593-129.102-11.819c2.274,19.494,183.717,113.703,214.307,134.243
					C902.713,836.767,904.744,819.612,913.742,808.357z"/>
			</g>
		</g>
	</g>
	<g>
		<g>
			<path style="fill:#F0928B;" d="M895.331,856.246c-26.181-16.603-132.829-82.279-143.456-87.756
				c-61.913-31.918-90.13-44.408-81.236-78.62c10.083-38.757,83.218-8.666,135.935,21.181
				c34.811,19.707,52.073,31.128,106.455,77.958C925.435,806.69,918.826,855.941,895.331,856.246z"/>
		</g>
	</g>
	<path style="fill:#4865A2;" d="M642.774,462.294c-12.664-2.106-24.882,1.122-36.179,6.795c-5.237,2.629-8.938,4.407-14.616,5.926
		c-19.155,5.125-23.455,33.761-21.954,50.267c0.822,9.069,4.494,18.037,7.03,26.703c6.689,22.771,25.279,45.855,51.201,44.708
		c16.529-0.731,33.513-9.813,43.72-22.766C697.492,541.538,690.685,470.263,642.774,462.294z"/>
	<g>
		<g>
			<g>
				<path style="fill:#EAB1B8;" d="M900.226,838.031c-8.056-2.356-30.6-13.009-30.961-25.403
					c-0.307-10.387,4.018-13.174,4.008-13.164c42.075-38.47,83.149-70.344,118.628-93.509
					c34.896-22.779,23.609,15.355,23.609,15.355C985.654,756.987,960.435,793.074,900.226,838.031z"/>
			</g>
		</g>
	</g>
	<path style="fill:#EAB1B8;" d="M1003.123,688.029c-5.162,11.282-9.542,23.029-6.763,25.839l0.56,0.56
		c0.773-0.647,1.546-1.296,2.329-1.945c0,0-1.645,2.571,0.907-0.763c0.233-0.196,0.471-0.394,0.708-0.59
		c-1.045,3.555-0.768,6.934,2.18,9.489c9.681,8.403,22.345-5.329,29.153-11.416c5.53-4.945,10.147-10.952,14.438-16.967
		c5.034-7.045,5.465-24.568-3.825-28.791c-9.518-4.33-10.692,11.267-18.392,7.781c-4.271-1.93-2.953-16.744-10.132-5.693
		C1013.043,668.067,1007.766,677.859,1003.123,688.029z"/>
	<g>
		<g>
			<path style="fill:#F0928B;" d="M984.098,710.394c-34.038,22.769-77.158,50.465-116.815,86.726
				c-2.17,15.201,1.68,5.121,1.982,15.508c0.361,12.394,21.711,40.739,29.762,43.096c54.471-40.672,81.672-88.951,108.209-121.371
				L984.098,710.394z"/>
		</g>
	</g>
	<g>
		<g>
			<path style="fill:#FFFFFF;" d="M996.772,747.782c3.538-4.707,7.006-9.208,10.464-13.43l-23.138-23.958
				c-4.707,3.151-9.582,6.491-14.557,9.974L996.772,747.782z"/>
		</g>
	</g>
	<polygon style="fill:#F7D48D;" points="432.281,1134.763 432.281,1189.177 443.375,1189.177 443.375,1147.898 513.121,1147.898 
		513.121,1189.177 524.22,1189.177 524.22,1134.763 	"/>
	<path style="fill:#EAB1B8;" d="M681.023,1443.285c0,0-22.846,58.408,24.268,246.394c3.766,15.05,15.493,14.093,21.766,9.245
		c4.206-3.251,4.226-9.387,4.226-9.387s22.197-214.174,16.608-240.602C742.302,1422.507,681.023,1443.285,681.023,1443.285z"/>
	<path style="fill:#3A507B;" d="M741.638,1010.924H632.463c0.015,0.48,0.025,0.971,0.025,1.437
		c0.079,20.894,0.228,41.787,0.51,62.681c0.718,52.849-0.461,39.261,2.606,92.029c2.611,44.884,35.42,248.849,40.122,259.719
		c4.771,11.036,2.502,31.095,12.005,39.441c15.117,13.276,44.681,20.307,57.375,3.726c8.571-11.198,4.702-68.629,6.263-82.901
		c1.318-12.131,1.273-24.555,1.828-35.889c2.225-45.56-0.857-91.23-1.046-136.805
		C751.894,1150.491,751.711,1088.834,741.638,1010.924z"/>
	<path style="fill:#374D7E;" d="M794.94,1708.959c-7.432-1.085-9.746-0.059-17.192-1.279c-7.343-1.204-14.567-3.778-21.226-7.083
		c-6.585-3.267-16.172-9.944-21.82-14.462c-0.713-0.572-1.437-1.048-2.16-1.479c-10.058,4.645-15.82,4.335-26.596-0.223
		c-1.02-0.431-1.69-1.06-2.061-1.784c-0.307,0.246-0.595,0.53-0.842,0.855c-1.734,2.208-2.031,5.257-2.438,7.932
		c-0.763,4.984-3.101,25.694-2.081,30.602c1.442,6.939,39.211,15.208,51.602,15.979c16.692,1.036,29.421,1.737,45.895-0.932
		C812.088,1734.485,807.525,1710.795,794.94,1708.959z"/>
	<g>
		<g>
			<path style="fill:#EAB1B8;" d="M594.748,566.925c4.415,9.602,22.232,19.598,23.852,10.095c0.996-5.812,0.213-17.901-4.201-27.505
				c-4.414-9.605-3.038-11.302-11.797-7.273C593.847,546.27,590.334,557.318,594.748,566.925z"/>
		</g>
	</g>
	<path style="fill:#EAB1B8;" d="M618.288,585.275c1.595-20.901,62.864,17.953,62.864,17.953l-6.555,79.742
		c0,0-0.639-3.201-30.773-2.488c-18.362,0.429-29.797,6.213-28.875-10.945C615.513,658.933,617.733,592.501,618.288,585.275z"/>
	<path style="fill:#E5958A;" d="M617.362,605.435c8.675,28.009,33.563,48.201,59.624,46.125l4.167-48.332
		c0,0-61.269-38.854-62.864-17.953c-0.174,2.212,0.218-4.325-0.704,4.816C617.956,590.542,617.158,604.772,617.362,605.435z"/>
	<path style="fill:#EAB1B8;" d="M694.916,614.636c-17.455,14.029-51.855,10.15-66.986-5.334
		c-9.156-9.367-14.314-19.823-16.39-32.267c-2.334-14.012-1.229-27.248-3.468-41.349c-0.961-6.082-1.788-12.228-1.462-18.397
		c0.521-9.867,4.078-19.618,10.083-27.679c5.906-7.927,15.181-11.958,23.465-17.061c7.006-4.32,14.859-9.654,23.133-11.096
		c5.708-0.996,9.547,2.405,14.264,5.339c25.625,15.922,38.517,52.175,39.241,81.241
		C717.336,569.678,712.872,600.201,694.916,614.636z"/>
	<path style="fill:#4865A2;" d="M619.433,542.242c8.834,6.766,16.484,15.993,26.036,21.735c12.674,7.613,23.445,8.408,35.911,0.092
		c12.228-8.155,23.148-9.563,35.366-7.608c-0.728,20.549-6.104,45.533-21.83,58.175c-17.455,14.029-51.855,10.15-66.986-5.334
		c-9.156-9.367-14.314-19.823-16.39-32.267c-2.329-13.987-1.238-27.203-3.458-41.275
		C612.204,537.237,615.929,539.559,619.433,542.242z"/>
	<path style="fill:#EAB1B8;" d="M602.255,1436.95c0,0,22.846,58.408-24.263,246.394c-3.771,15.05-15.493,14.093-21.771,9.245
		c-4.206-3.25-4.226-9.387-4.226-9.387s-11.316-218.048-5.727-244.473C551.856,1412.301,602.255,1436.95,602.255,1436.95z"/>
	<path style="fill:#3A507B;" d="M545.217,1010.924c-2.428,5.287-4.058,10.105-4.578,14.074
		c-9.384,71.299-9.255,118.641-9.513,183.031c-0.188,45.578,4.816,186.606,7.591,239.576c1.09,20.854,47.47,35.629,62.587,22.353
		c9.503-8.346,16.177-15.503,20.953-26.54c4.702-10.868,21.786-253.452,24.392-298.335c3.072-52.769,2.913-23.527,3.637-76.375
		c0.258-19.261,0.396-38.522,0.476-57.784H545.217z"/>
	<path style="fill:#EAB1B8;" d="M704.151,987.64c4.722-94.353,23.069-233.167,11.173-246.594
		c-20.933-23.631,8.735-5.854-6.416-24.79c-22.652-28.316-93.097-57.875-121.418-16.89c-9.593,13.895-1.229,44.062-3.498,54.466
		c-5.024,23.061-6.926,137.949-12.614,230.491L704.151,987.64z"/>
	<path style="fill:#F0928B;" d="M692.275,666.372c-5.227-1.838-10.98-3.272-17.128-4.382c-7.179,6.488-15.944-2.918-26.626-3.347
		c-11.128-0.446-24.189,7.831-31.611,2.061c-0.426-0.339-0.778-0.696-1.11-1.058c-5.479,0.3-11.044,0.691-16.692,1.182
		c-14.789,1.687-32.091,6.032-41.584,11.886c-38.889,23.983-32.72,74.948-31.898,88.658c2.185,36.431,5.648,324.657-0.941,364.009
		c0,0,236.405,0,236.42,0c3.998-3.484-5.634-322.353-8.443-368.701C748.912,694.762,722.543,677.017,692.275,666.372z"/>
	<g>
		<g>
			<g>
				<path style="fill:#EAB1B8;" d="M448.205,932.302c7.353-4.053,30.793-12.538,39.846-4.063c7.585,7.102,6.51,12.134,6.51,12.122
					c-2.359,56.963-8.686,108.563-17.262,150.061c-8.423,40.809-27.523,5.928-27.523,5.928
					C445.5,1050.024,437.672,1006.698,448.205,932.302z"/>
			</g>
		</g>
	</g>
	<g>
		<g>
			<g>
				<path style="fill:#EAB1B8;" d="M469.332,955.807c-3.726-0.384-22.697-7.588-21.127-23.505
					c9.87-99.63,27.603-126.816,44.196-169.19c22.603-57.729,66.015-108.955,95.371-81.717
					c25.913,24.045-40.568,76.224-68.245,163.005c-4.504,14.111-16.593,57.699-38.934,100.854
					C480.589,945.258,478.994,954.139,469.332,955.807z"/>
			</g>
		</g>
	</g>
	<g>
		<g>
			<path style="fill:#F0928B;" d="M491.851,945.253c13.125-28.085,57.786-162.284,63.796-172.624
				c34.995-60.218,57.36-70.589,31.447-94.633c-29.356-27.236-76.613,30-104.478,83.792c-24.233,46.776-33.92,86.833-47.054,160.949
				C434.625,944.314,471.889,957.64,491.851,945.253z"/>
		</g>
	</g>
	<path style="fill:#374D7E;" d="M640.425,1711.286c-7.432-1.085-9.746-0.059-17.193-1.281c-7.343-1.201-14.567-3.775-21.226-7.08
		c-6.58-3.267-16.172-9.944-21.82-14.462c-0.713-0.572-1.437-1.048-2.16-1.479c-10.063,4.645-15.82,4.335-26.596-0.223
		c-1.02-0.431-1.684-1.06-2.061-1.784c-0.307,0.246-0.595,0.53-0.847,0.855c-1.724,2.207-2.026,5.257-2.433,7.932
		c-0.758,4.984-3.102,25.694-2.081,30.602c1.441,6.939,39.211,15.208,51.602,15.976c16.692,1.038,29.421,1.739,45.895-0.929
		C657.568,1736.811,653.01,1713.124,640.425,1711.286z"/>
	<path style="fill:#3A507B;" d="M736.714,1689.688c6.059-62.576,15.3-221.288,11.177-240.752
		c-5.589-26.428-66.863-5.651-66.863-5.651s-27.345,58.536,21.206,244.996L736.714,1689.688z"/>
	<path style="fill:#3A507B;" d="M583.323,1690.04c39.008-168.437,40.811-265.385,40.811-265.385s-86.691-32.017-84.437,16.888
		c0.951,20.567,2.933,183.975,6.947,249.327L583.323,1690.04z"/>
	<rect x="386.307" y="1185.424" style="fill:#4865A2;" width="202.645" height="178.017"/>
	<rect x="375.046" y="1185.424" style="fill:#6379AD;" width="202.649" height="178.017"/>
	<rect x="375.046" y="1185.424" style="fill:#778FC1;" width="202.649" height="81.385"/>
	<path style="fill:#EAB1B8;" d="M477.948,1112.454c-1.219-9.401-2.908-16.979-9.399-24.446h-0.793
		c-0.089,1.006-0.179,2.014-0.263,3.024c0,0-0.669-2.978-0.099,1.182c-0.025,0.304-0.05,0.612-0.075,0.916
		c-1.793-3.245-4.38-5.43-8.274-5.141c-12.783,0.951-11.961,19.611-12.446,28.727c-0.386,7.41,0.624,14.919,1.863,22.207
		c1.417,8.334,7.447,11.946,14.091,16.873c2.67,0.307,19.372,1.486,17.604-5.359c-0.302-1.171-5.683-3.205-6.718-4.867
		c-4.201-6.726-1.372-13.789-1.942-20.854c2.264,3.696,2.571,10.492,7.229,12.263
		C483.195,1138.684,479.434,1118.692,477.948,1112.454z"/>
	<path style="fill:#F7D48D;" d="M484.345,1267.983c0,3.627-2.938,6.567-6.57,6.567h-20.636c-3.627,0-6.565-2.941-6.565-6.567l0,0
		c0-3.627,2.938-6.567,6.565-6.567h20.636C481.407,1261.416,484.345,1264.356,484.345,1267.983L484.345,1267.983z"/>
	<g>
		<g>
			<path style="fill:#F0928B;" d="M479.658,1081.755c7.828-40.194,14.66-92.193,16.885-145.884c0,0.013-0.907-0.53-8.492-7.633
				c-9.052-8.475-44.205-13.308-51.548-9.255c-9.533,67.311,5.549,120.628,9.85,162.303L479.658,1081.755z"/>
		</g>
	</g>
	<g>
		<g>
			<path style="fill:#FFFFFF;" d="M444.192,1064.4c0.852,5.827,1.596,11.46,2.16,16.888l33.305,0.468
				c1.08-5.562,2.14-11.368,3.181-17.356H444.192z"/>
		</g>
	</g>
	<path style="fill:#FFFFFF;" d="M618.035,637.534l30.486,21.109l-22.979,35.18l-34.712-32.366
		C590.829,661.457,602.086,638.941,618.035,637.534z"/>
	<path style="fill:#FFFFFF;" d="M648.521,658.643l15.954,35.18l34.712-24.86c0,0-6.57-21.109-21.107-23.455L648.521,658.643z"/>
	<path style="fill:#4865A2;" d="M718.416,447.616c-0.753-10.152-6.882-10.273-15.632-8.953c-8.522,1.288-16.945,3.815-25.704,4.202
		c-9.736,0.431-18.228-1.499-27.637-2.988c-16.241-2.571-33.047,1.593-47.827,9.32c-22.187,11.601-35.678,50.039-31.665,75.288
		c1.328,8.343,4.588,6.379,10.955,11.941c2.904,2.537,6.738,5.715,10.419,7.018c3.24,1.152,7.705-0.374,11.098-0.723
		c1.388-1.898,5.232,1.551,6.406,3.161c1.897,2.606,3.057,7.757,7.432,6.446c3.929-1.177,5.287-6.176,5.693-9.681
		c0.852-7.455-0.193-14.919,0.07-22.383c0.535-15.344,14.626-15.357,26.735-17.591c20.77-3.829,39.855-6.765,57.186-20.527
		C715.527,474.536,719.293,459.393,718.416,447.616z"/>
	<g>
		<g>
			
				<rect x="898.516" y="238.194" transform="matrix(0.8183 -0.5748 0.5748 0.8183 -142.3802 628.0264)" style="fill:#FFD686;" width="47.289" height="602.044"/>
			
				<rect x="902.069" y="249.433" transform="matrix(0.8183 -0.5748 0.5748 0.8183 -151.7473 620.8727)" style="fill:#FFF7C2;" width="8.186" height="602.045"/>
			
				<rect x="930.025" y="227.217" transform="matrix(0.8183 -0.5748 0.5748 0.8183 -133.231 635.0167)" style="fill:#FEC463;" width="15.524" height="602.044"/>
		</g>
		<path style="fill:#F3DABF;" d="M1075.833,799.141L1075.833,799.141l34.796,27.57l34.802,27.568l-14.131-42.087l-14.13-42.087
			v0.003c0,0,0-0.008,0-0.01c-0.605-0.854-10.345,4.952-21.761,12.969c-11.415,8.021-20.185,15.216-19.581,16.07L1075.833,799.141z"
			/>
		<path style="fill:#39312A;" d="M1115.812,830.925l29.619,23.354l-12.179-36.268
			C1128.089,818.549,1119.205,824.096,1115.812,830.925z"/>
		
			<rect x="726.988" y="287.175" transform="matrix(0.8183 -0.5748 0.5748 0.8183 -32.5198 486.0333)" style="fill:#67686B;" width="50.927" height="14.551"/>
		<path style="fill:#E76C63;" d="M717.385,288.84l0.005-0.003l10.043,14.296l41.673-29.274l-10.628-15.134
			c-0.203-0.317-0.382-0.641-0.599-0.951c-8.111-11.547-24.05-14.331-35.594-6.223c-11.544,8.11-14.329,24.047-6.223,35.594
			C716.479,287.737,716.934,288.295,717.385,288.84z"/>
	</g>
	<path style="fill:#EAB1B8;" d="M1046.387,648.818c-9.344-9.48-22.276-11.663-30.778-0.059c-15.349,20.943,5.4,38.651,25.576,42.34
		c8.898,1.63,16.137-4.615,18.015-13.412C1061.514,666.816,1053.552,656.091,1046.387,648.818z"/>
</g>
<g>
	<g>
		<g>
			<path style="fill:#F9A65D;" d="M1140.52,1698.401c-27.394-18.76-84.6-31.67-150.744-31.67c-66.149,0-123.35,12.91-150.75,31.67
				h-17.505v25.038h0.273c0,31.321,75.206,56.708,167.982,56.708c92.77,0,167.972-25.387,167.972-56.708v-25.038H1140.52z"/>
			<path style="fill:#FEC463;" d="M1157.748,1698.669c0,31.318-75.202,56.708-167.972,56.708
				c-92.775,0-167.982-25.39-167.982-56.708c0-31.318,75.206-56.708,167.982-56.708
				C1082.546,1641.96,1157.748,1667.35,1157.748,1698.669z"/>
			<g>
				<ellipse style="fill:#FFD686;" cx="989.776" cy="1698.668" rx="139.552" ry="47.111"/>
				<path style="fill:#FFDA67;" d="M875.314,1740.166c79.046-26.74,158.062-53.49,237.352-80.149
					c-5.822-2.106-12.094-4.068-18.793-5.856c-78.858,26.473-157.562,53-236.098,79.579
					C863.126,1736.034,868.997,1738.179,875.314,1740.166z"/>
				<path style="fill:#FFDA67;" d="M1136.71,1671.203c-5.183-3.149-11.188-6.119-17.975-8.864
					c-79.021,26.567-157.77,53.225-236.544,79.876c8.255,2.324,17.193,4.377,26.676,6.141
					C984.91,1722.671,1060.895,1696.966,1136.71,1671.203z"/>
				<ellipse style="fill:#FFD686;" cx="989.776" cy="1698.668" rx="139.552" ry="47.111"/>
				<path style="fill:#FFD686;" d="M1065.913,1659.195c-21.899-4.823-48.04-7.638-76.138-7.638
					c-77.074,0-139.552,21.092-139.552,47.111c0,9.461,8.289,18.26,22.504,25.64
					C937.019,1702.568,1001.409,1680.864,1065.913,1659.195z"/>
				<path style="fill:#FFD686;" d="M938.981,1742.549c15.746,2.081,32.869,3.23,50.795,3.23c77.069,0,139.552-21.092,139.552-47.111
					c0-6.102-3.463-11.926-9.721-17.277C1059.478,1701.805,999.259,1722.185,938.981,1742.549z"/>
				<path style="fill:#FAA955;" d="M856.254,1701.866c0-26.019,62.478-47.111,139.547-47.111c47.505,0,89.431,8.019,114.64,20.257
					c-24.178-14.022-69.147-23.455-120.665-23.455c-77.074,0-139.552,21.092-139.552,47.111c0,9.983,9.226,19.234,24.912,26.854
					C863.151,1718.568,856.254,1710.493,856.254,1701.866z"/>
			</g>
			<g>
				<path style="fill:#FEC463;" d="M984.99,1665.584h19.026v5.301c15.36,0.488,28.648,2.462,39.88,5.918l-20.973,8.822
					c-7.64-2.168-14.056-3.521-19.253-4.063v11.18c29.113,2.992,43.665,8.537,43.665,16.635c0,4.078-3.706,7.506-11.113,10.293
					c-7.412,2.784-18.342,4.615-32.78,5.492v6.731h-18.679v-6.654h-3.092c-7.03,0-15.24-0.672-24.639-2.012
					c-9.399-1.341-16.693-3.055-21.885-5.146l20.052-8.472c8.477,2.965,18.337,4.823,29.564,5.572v-12.999
					c-13.902-1.186-24.506-3.25-31.799-6.191c-7.298-2.941-10.945-6.344-10.945-10.214c0-4.1,3.533-7.563,10.598-10.387
					c7.065-2.824,17.856-4.353,32.373-4.583V1665.584z M984.762,1690.771v-9.517c-7.105,0.824-10.657,2.361-10.657,4.603
					C974.104,1688.281,977.657,1689.919,984.762,1690.771z M1003.669,1704.465v10.058c7.867-0.669,11.807-2.334,11.807-4.989
					C1015.475,1707.111,1011.536,1705.419,1003.669,1704.465z"/>
			</g>
			<g>
				<path style="fill:#F9A65D;" d="M980.401,1665.584h19.016v5.301c15.359,0.488,28.657,2.462,39.885,5.918l-20.968,8.822
					c-7.645-2.168-14.061-3.521-19.254-4.063v11.18c29.103,2.992,43.66,8.537,43.66,16.635c0,4.078-3.706,7.506-11.118,10.293
					c-7.412,2.784-18.332,4.615-32.775,5.492v6.731h-18.684v-6.654h-3.092c-7.026,0-15.24-0.672-24.635-2.012
					c-9.399-1.341-16.697-3.055-21.889-5.146l20.056-8.472c8.477,2.965,18.332,4.823,29.56,5.572v-12.999
					c-13.903-1.186-24.506-3.25-31.799-6.191c-7.293-2.941-10.94-6.344-10.94-10.214c0-4.1,3.528-7.563,10.598-10.387
					c7.065-2.824,17.856-4.353,32.378-4.583V1665.584z M980.164,1690.771v-9.517c-7.1,0.824-10.653,2.361-10.653,4.603
					C969.511,1688.281,973.064,1689.919,980.164,1690.771z M999.081,1704.465v10.058c7.868-0.669,11.802-2.334,11.802-4.989
					C1010.882,1707.111,1006.949,1705.419,999.081,1704.465z"/>
			</g>
			<g>
				<path style="fill:#FEC463;" d="M984.99,1665.584h19.026v5.301c15.36,0.488,28.648,2.462,39.88,5.918l-20.973,8.822
					c-7.64-2.168-14.056-3.521-19.253-4.063v11.18c29.113,2.992,43.665,8.537,43.665,16.635c0,4.078-3.706,7.506-11.113,10.293
					c-7.412,2.784-18.342,4.615-32.78,5.492v6.731h-18.679v-6.654h-3.092c-7.03,0-15.24-0.672-24.639-2.012
					c-9.399-1.341-16.693-3.055-21.885-5.146l20.052-8.472c8.477,2.965,18.337,4.823,29.564,5.572v-12.999
					c-13.902-1.186-24.506-3.25-31.799-6.191c-7.298-2.941-10.945-6.344-10.945-10.214c0-4.1,3.533-7.563,10.598-10.387
					c7.065-2.824,17.856-4.353,32.373-4.583V1665.584z M984.762,1690.771v-9.517c-7.105,0.824-10.657,2.361-10.657,4.603
					C974.104,1688.281,977.657,1689.919,984.762,1690.771z M1003.669,1704.465v10.058c7.867-0.669,11.807-2.334,11.807-4.989
					C1015.475,1707.111,1011.536,1705.419,1003.669,1704.465z"/>
			</g>
			<path style="opacity:0.4;fill:#FFF3CE;" d="M895.41,1733.368c65.639-22.211,131.287-44.42,197.105-66.573
				c-5.787-2.123-12.129-4.07-18.966-5.804c-65.287,21.929-130.455,43.896-195.519,65.899
				C883.217,1729.229,889.048,1731.396,895.41,1733.368z"/>
			<path style="opacity:0.4;fill:#FFF3CE;" d="M1115.668,1678.35c-4.682-3.3-10.44-6.389-17.168-9.208
				c-65.49,22.046-130.817,44.146-196.134,66.249c8.438,2.294,17.698,4.253,27.587,5.841
				C991.926,1720.293,1053.849,1699.337,1115.668,1678.35z"/>
		</g>
		<g>
			<path style="fill:#F9A65D;" d="M1140.52,1664.838c-27.394-18.761-84.6-31.67-150.744-31.67c-66.149,0-123.35,12.909-150.75,31.67
				h-17.505v25.038h0.273c0,31.318,75.206,56.708,167.982,56.708c92.77,0,167.972-25.39,167.972-56.708v-25.038H1140.52z"/>
			<path style="fill:#FEC463;" d="M1157.748,1665.106c0,31.318-75.202,56.708-167.972,56.708
				c-92.775,0-167.982-25.39-167.982-56.708c0-31.32,75.206-56.708,167.982-56.708
				C1082.546,1608.398,1157.748,1633.785,1157.748,1665.106z"/>
			<g>
				<path style="fill:#FFD686;" d="M1129.328,1665.106c0,26.017-62.483,47.111-139.552,47.111
					c-77.074,0-139.552-21.094-139.552-47.111c0-26.019,62.478-47.113,139.552-47.113
					C1066.845,1617.992,1129.328,1639.087,1129.328,1665.106z"/>
				<path style="fill:#FFDA67;" d="M875.314,1706.601c79.046-26.74,158.062-53.487,237.352-80.146
					c-5.822-2.106-12.094-4.068-18.793-5.856c-78.858,26.472-157.562,52.997-236.098,79.578
					C863.126,1702.469,868.997,1704.614,875.314,1706.601z"/>
				<path style="fill:#FFDA67;" d="M1136.71,1637.64c-5.183-3.149-11.188-6.119-17.975-8.864
					c-79.021,26.567-157.77,53.225-236.544,79.874c8.255,2.326,17.193,4.379,26.676,6.144
					C984.91,1689.109,1060.895,1663.404,1136.71,1637.64z"/>
				<path style="fill:#FFD686;" d="M1129.328,1665.106c0,26.017-62.483,47.111-139.552,47.111
					c-77.074,0-139.552-21.094-139.552-47.111c0-26.019,62.478-47.113,139.552-47.113
					C1066.845,1617.992,1129.328,1639.087,1129.328,1665.106z"/>
				<path style="fill:#FFD686;" d="M1065.913,1625.633c-21.899-4.826-48.04-7.64-76.138-7.64
					c-77.074,0-139.552,21.094-139.552,47.113c0,9.459,8.289,18.261,22.504,25.64
					C937.019,1669.005,1001.409,1647.299,1065.913,1625.633z"/>
				<path style="fill:#FFD686;" d="M938.981,1708.987c15.746,2.081,32.869,3.23,50.795,3.23c77.069,0,139.552-21.094,139.552-47.111
					c0-6.101-3.463-11.926-9.721-17.276C1059.478,1668.242,999.259,1688.623,938.981,1708.987z"/>
				<path style="fill:#FAA955;" d="M856.254,1668.304c0-26.019,62.478-47.111,139.547-47.111c47.505,0,89.431,8.016,114.64,20.257
					c-24.178-14.024-69.147-23.458-120.665-23.458c-77.074,0-139.552,21.094-139.552,47.113c0,9.984,9.226,19.234,24.912,26.854
					C863.151,1685.006,856.254,1676.93,856.254,1668.304z"/>
			</g>
			<g>
				<path style="fill:#FEC463;" d="M984.99,1632.021h19.026v5.299c15.36,0.491,28.648,2.465,39.88,5.921l-20.973,8.819
					c-7.64-2.165-14.056-3.52-19.253-4.062v11.182c29.113,2.992,43.665,8.537,43.665,16.635c0,4.075-3.706,7.506-11.113,10.291
					c-7.412,2.787-18.342,4.618-32.78,5.495v6.731h-18.679v-6.654h-3.092c-7.03,0-15.24-0.671-24.639-2.011
					c-9.399-1.34-16.693-3.057-21.885-5.146l20.052-8.472c8.477,2.965,18.337,4.823,29.564,5.571v-12.998
					c-13.902-1.187-24.506-3.253-31.799-6.191c-7.298-2.941-10.945-6.344-10.945-10.214c0-4.1,3.533-7.563,10.598-10.388
					c7.065-2.824,17.856-4.353,32.373-4.585V1632.021z M984.762,1657.206v-9.515c-7.105,0.825-10.657,2.359-10.657,4.603
					C974.104,1654.719,977.657,1656.356,984.762,1657.206z M1003.669,1670.903v10.058c7.867-0.669,11.807-2.333,11.807-4.989
					C1015.475,1673.546,1011.536,1671.857,1003.669,1670.903z"/>
			</g>
			<g>
				<path style="fill:#F9A65D;" d="M980.401,1632.021h19.016v5.299c15.359,0.491,28.657,2.465,39.885,5.921l-20.968,8.819
					c-7.645-2.165-14.061-3.52-19.254-4.062v11.182c29.103,2.992,43.66,8.537,43.66,16.635c0,4.075-3.706,7.506-11.118,10.291
					c-7.412,2.787-18.332,4.618-32.775,5.495v6.731h-18.684v-6.654h-3.092c-7.026,0-15.24-0.671-24.635-2.011
					c-9.399-1.34-16.697-3.057-21.889-5.146l20.056-8.472c8.477,2.965,18.332,4.823,29.56,5.571v-12.998
					c-13.903-1.187-24.506-3.253-31.799-6.191c-7.293-2.941-10.94-6.344-10.94-10.214c0-4.1,3.528-7.563,10.598-10.388
					c7.065-2.824,17.856-4.353,32.378-4.585V1632.021z M980.164,1657.206v-9.515c-7.1,0.825-10.653,2.359-10.653,4.603
					C969.511,1654.719,973.064,1656.356,980.164,1657.206z M999.081,1670.903v10.058c7.868-0.669,11.802-2.333,11.802-4.989
					C1010.882,1673.546,1006.949,1671.857,999.081,1670.903z"/>
			</g>
			<g>
				<path style="fill:#FEC463;" d="M984.99,1632.021h19.026v5.299c15.36,0.491,28.648,2.465,39.88,5.921l-20.973,8.819
					c-7.64-2.165-14.056-3.52-19.253-4.062v11.182c29.113,2.992,43.665,8.537,43.665,16.635c0,4.075-3.706,7.506-11.113,10.291
					c-7.412,2.787-18.342,4.618-32.78,5.495v6.731h-18.679v-6.654h-3.092c-7.03,0-15.24-0.671-24.639-2.011
					c-9.399-1.34-16.693-3.057-21.885-5.146l20.052-8.472c8.477,2.965,18.337,4.823,29.564,5.571v-12.998
					c-13.902-1.187-24.506-3.253-31.799-6.191c-7.298-2.941-10.945-6.344-10.945-10.214c0-4.1,3.533-7.563,10.598-10.388
					c7.065-2.824,17.856-4.353,32.373-4.585V1632.021z M984.762,1657.206v-9.515c-7.105,0.825-10.657,2.359-10.657,4.603
					C974.104,1654.719,977.657,1656.356,984.762,1657.206z M1003.669,1670.903v10.058c7.867-0.669,11.807-2.333,11.807-4.989
					C1015.475,1673.546,1011.536,1671.857,1003.669,1670.903z"/>
			</g>
			<path style="opacity:0.4;fill:#FFF3CE;" d="M895.41,1699.806c65.639-22.212,131.287-44.421,197.105-66.573
				c-5.787-2.123-12.129-4.07-18.966-5.807c-65.287,21.929-130.455,43.898-195.519,65.901
				C883.217,1695.666,889.048,1697.833,895.41,1699.806z"/>
			<path style="opacity:0.4;fill:#FFF3CE;" d="M1115.668,1644.785c-4.682-3.297-10.44-6.387-17.168-9.206
				c-65.49,22.046-130.817,44.146-196.134,66.248c8.438,2.294,17.698,4.254,27.587,5.842
				C991.926,1686.73,1053.849,1665.775,1115.668,1644.785z"/>
		</g>
		<g>
			<path style="fill:#F9A65D;" d="M1140.52,1627.919c-27.394-18.76-84.6-31.669-150.744-31.669
				c-66.149,0-123.35,12.909-150.75,31.669h-17.505v25.038h0.273c0,31.318,75.206,56.708,167.982,56.708
				c92.77,0,167.972-25.39,167.972-56.708v-25.038H1140.52z"/>
			<path style="fill:#FEC463;" d="M1157.748,1628.184c0,31.32-75.202,56.71-167.972,56.71c-92.775,0-167.982-25.39-167.982-56.71
				c0-31.318,75.206-56.706,167.982-56.706C1082.546,1571.478,1157.748,1596.865,1157.748,1628.184z"/>
			<g>
				<path style="fill:#FFD686;" d="M1129.328,1628.184c0,26.019-62.483,47.113-139.552,47.113
					c-77.074,0-139.552-21.094-139.552-47.113c0-26.019,62.478-47.111,139.552-47.111
					C1066.845,1581.073,1129.328,1602.165,1129.328,1628.184z"/>
				<path style="fill:#FFDA67;" d="M875.314,1669.684c79.046-26.743,158.062-53.49,237.352-80.149
					c-5.822-2.108-12.094-4.068-18.793-5.856c-78.858,26.473-157.562,52.997-236.098,79.579
					C863.126,1665.549,868.997,1667.695,875.314,1669.684z"/>
				<path style="fill:#FFDA67;" d="M1136.71,1600.72c-5.183-3.149-11.188-6.119-17.975-8.864
					c-79.021,26.567-157.77,53.223-236.544,79.874c8.255,2.326,17.193,4.38,26.676,6.144
					C984.91,1652.189,1060.895,1626.484,1136.71,1600.72z"/>
				<path style="fill:#FFD686;" d="M1129.328,1628.184c0,26.019-62.483,47.113-139.552,47.113
					c-77.074,0-139.552-21.094-139.552-47.113c0-26.019,62.478-47.111,139.552-47.111
					C1066.845,1581.073,1129.328,1602.165,1129.328,1628.184z"/>
				<path style="fill:#FFD686;" d="M1065.913,1588.713c-21.899-4.826-48.04-7.64-76.138-7.64
					c-77.074,0-139.552,21.095-139.552,47.111c0,9.461,8.289,18.263,22.504,25.643
					C937.019,1632.086,1001.409,1610.379,1065.913,1588.713z"/>
				<path style="fill:#FFD686;" d="M938.981,1672.067c15.746,2.079,32.869,3.23,50.795,3.23c77.069,0,139.552-21.094,139.552-47.113
					c0-6.099-3.463-11.923-9.721-17.274C1059.478,1631.323,999.259,1651.703,938.981,1672.067z"/>
				<path style="fill:#FAA955;" d="M856.254,1631.385c0-26.02,62.478-47.111,139.547-47.111c47.505,0,89.431,8.017,114.64,20.257
					c-24.178-14.024-69.147-23.458-120.665-23.458c-77.074,0-139.552,21.095-139.552,47.111c0,9.984,9.226,19.236,24.912,26.856
					C863.151,1648.086,856.254,1640.01,856.254,1631.385z"/>
			</g>
			<g>
				<path style="fill:#FEC463;" d="M984.99,1595.102h19.026v5.299c15.36,0.491,28.648,2.465,39.88,5.921l-20.973,8.819
					c-7.64-2.165-14.056-3.521-19.253-4.063v11.183c29.113,2.993,43.665,8.537,43.665,16.635c0,4.075-3.706,7.506-11.113,10.291
					c-7.412,2.785-18.342,4.615-32.78,5.495v6.731h-18.679v-6.654h-3.092c-7.03,0-15.24-0.671-24.639-2.012
					c-9.399-1.34-16.693-3.057-21.885-5.146l20.052-8.472c8.477,2.965,18.337,4.823,29.564,5.572v-13.001
					c-13.902-1.184-24.506-3.251-31.799-6.191c-7.298-2.938-10.945-6.342-10.945-10.211c0-4.103,3.533-7.566,10.598-10.388
					c7.065-2.826,17.856-4.353,32.373-4.585V1595.102z M984.762,1620.286v-9.518c-7.105,0.828-10.657,2.361-10.657,4.605
					C974.104,1617.799,977.657,1619.437,984.762,1620.286z M1003.669,1633.984v10.058c7.867-0.671,11.807-2.334,11.807-4.989
					C1015.475,1636.627,1011.536,1634.937,1003.669,1633.984z"/>
			</g>
			<g>
				<path style="fill:#F9A65D;" d="M980.401,1595.102h19.016v5.299c15.359,0.491,28.657,2.465,39.885,5.921l-20.968,8.819
					c-7.645-2.165-14.061-3.521-19.254-4.063v11.183c29.103,2.993,43.66,8.537,43.66,16.635c0,4.075-3.706,7.506-11.118,10.291
					c-7.412,2.785-18.332,4.615-32.775,5.495v6.731h-18.684v-6.654h-3.092c-7.026,0-15.24-0.671-24.635-2.012
					c-9.399-1.34-16.697-3.057-21.889-5.146l20.056-8.472c8.477,2.965,18.332,4.823,29.56,5.572v-13.001
					c-13.903-1.184-24.506-3.251-31.799-6.191c-7.293-2.938-10.94-6.342-10.94-10.211c0-4.103,3.528-7.566,10.598-10.388
					c7.065-2.826,17.856-4.353,32.378-4.585V1595.102z M980.164,1620.286v-9.518c-7.1,0.828-10.653,2.361-10.653,4.605
					C969.511,1617.799,973.064,1619.437,980.164,1620.286z M999.081,1633.984v10.058c7.868-0.671,11.802-2.334,11.802-4.989
					C1010.882,1636.627,1006.949,1634.937,999.081,1633.984z"/>
			</g>
			<g>
				<path style="fill:#FEC463;" d="M984.99,1595.102h19.026v5.299c15.36,0.491,28.648,2.465,39.88,5.921l-20.973,8.819
					c-7.64-2.165-14.056-3.521-19.253-4.063v11.183c29.113,2.993,43.665,8.537,43.665,16.635c0,4.075-3.706,7.506-11.113,10.291
					c-7.412,2.785-18.342,4.615-32.78,5.495v6.731h-18.679v-6.654h-3.092c-7.03,0-15.24-0.671-24.639-2.012
					c-9.399-1.34-16.693-3.057-21.885-5.146l20.052-8.472c8.477,2.965,18.337,4.823,29.564,5.572v-13.001
					c-13.902-1.184-24.506-3.251-31.799-6.191c-7.298-2.938-10.945-6.342-10.945-10.211c0-4.103,3.533-7.566,10.598-10.388
					c7.065-2.826,17.856-4.353,32.373-4.585V1595.102z M984.762,1620.286v-9.518c-7.105,0.828-10.657,2.361-10.657,4.605
					C974.104,1617.799,977.657,1619.437,984.762,1620.286z M1003.669,1633.984v10.058c7.867-0.671,11.807-2.334,11.807-4.989
					C1015.475,1636.627,1011.536,1634.937,1003.669,1633.984z"/>
			</g>
			<path style="opacity:0.4;fill:#FFF3CE;" d="M895.41,1662.886c65.639-22.211,131.287-44.42,197.105-66.575
				c-5.787-2.123-12.129-4.068-18.966-5.805c-65.287,21.929-130.455,43.896-195.519,65.902
				C883.217,1658.746,889.048,1660.912,895.41,1662.886z"/>
			<path style="opacity:0.4;fill:#FFF3CE;" d="M1115.668,1607.865c-4.682-3.297-10.44-6.387-17.168-9.208
				c-65.49,22.048-130.817,44.148-196.134,66.251c8.438,2.294,17.698,4.254,27.587,5.841
				C991.926,1649.811,1053.849,1628.855,1115.668,1607.865z"/>
		</g>
		<g>
			<path style="fill:#F9A65D;" d="M1140.52,1594.356c-27.394-18.763-84.6-31.67-150.744-31.67c-66.149,0-123.35,12.907-150.75,31.67
				h-17.505v25.038h0.273c0,31.318,75.206,56.708,167.982,56.708c92.77,0,167.972-25.39,167.972-56.708v-25.038H1140.52z"/>
			<path style="fill:#FEC463;" d="M1157.748,1594.621c0,31.321-75.202,56.708-167.972,56.708
				c-92.775,0-167.982-25.387-167.982-56.708c0-31.318,75.206-56.708,167.982-56.708
				C1082.546,1537.913,1157.748,1563.303,1157.748,1594.621z"/>
			<g>
				<ellipse style="fill:#FFD686;" cx="989.776" cy="1594.621" rx="139.552" ry="47.111"/>
				<path style="fill:#FFDA67;" d="M875.314,1636.119c79.046-26.741,158.062-53.49,237.352-80.146
					c-5.822-2.108-12.094-4.068-18.793-5.856c-78.858,26.47-157.562,52.997-236.098,79.578
					C863.126,1631.987,868.997,1634.132,875.314,1636.119z"/>
				<path style="fill:#FFDA67;" d="M1136.71,1567.158c-5.183-3.149-11.188-6.122-17.975-8.866
					c-79.021,26.567-157.77,53.225-236.544,79.876c8.255,2.326,17.193,4.38,26.676,6.143
					C984.91,1618.626,1060.895,1592.919,1136.71,1567.158z"/>
				<ellipse style="fill:#FFD686;" cx="989.776" cy="1594.621" rx="139.552" ry="47.111"/>
				<path style="fill:#FFD686;" d="M1065.913,1555.148c-21.899-4.823-48.04-7.638-76.138-7.638
					c-77.074,0-139.552,21.092-139.552,47.111c0,9.461,8.289,18.263,22.504,25.643
					C937.019,1598.523,1001.409,1576.817,1065.913,1555.148z"/>
				<path style="fill:#FFD686;" d="M938.981,1638.505c15.746,2.078,32.869,3.228,50.795,3.228
					c77.069,0,139.552-21.092,139.552-47.111c0-6.099-3.463-11.926-9.721-17.274
					C1059.478,1597.76,999.259,1618.141,938.981,1638.505z"/>
				<path style="fill:#FAA955;" d="M856.254,1597.822c0-26.019,62.478-47.113,139.547-47.113c47.505,0,89.431,8.019,114.64,20.257
					c-24.178-14.022-69.147-23.455-120.665-23.455c-77.074,0-139.552,21.092-139.552,47.111c0,9.983,9.226,19.236,24.912,26.856
					C863.151,1614.524,856.254,1606.445,856.254,1597.822z"/>
			</g>
			<g>
				<path style="fill:#FEC463;" d="M984.99,1561.539h19.026v5.299c15.36,0.491,28.648,2.462,39.88,5.918l-20.973,8.822
					c-7.64-2.168-14.056-3.521-19.253-4.063v11.183c29.113,2.992,43.665,8.537,43.665,16.635c0,4.075-3.706,7.504-11.113,10.291
					c-7.412,2.784-18.342,4.615-32.78,5.495v6.731h-18.679v-6.656h-3.092c-7.03,0-15.24-0.669-24.639-2.009
					c-9.399-1.343-16.693-3.057-21.885-5.146l20.052-8.475c8.477,2.968,18.337,4.823,29.564,5.571v-12.998
					c-13.902-1.187-24.506-3.25-31.799-6.191c-7.298-2.938-10.945-6.344-10.945-10.211c0-4.102,3.533-7.566,10.598-10.39
					c7.065-2.824,17.856-4.35,32.373-4.583V1561.539z M984.762,1586.724v-9.518c-7.105,0.828-10.657,2.361-10.657,4.606
					C974.104,1584.234,977.657,1585.874,984.762,1586.724z M1003.669,1600.418v10.06c7.867-0.671,11.807-2.333,11.807-4.991
					C1015.475,1603.064,1011.536,1601.374,1003.669,1600.418z"/>
			</g>
			<g>
				<path style="fill:#F9A65D;" d="M980.401,1561.539h19.016v5.299c15.359,0.491,28.657,2.462,39.885,5.918l-20.968,8.822
					c-7.645-2.168-14.061-3.521-19.254-4.063v11.183c29.103,2.992,43.66,8.537,43.66,16.635c0,4.075-3.706,7.504-11.118,10.291
					c-7.412,2.784-18.332,4.615-32.775,5.495v6.731h-18.684v-6.656h-3.092c-7.026,0-15.24-0.669-24.635-2.009
					c-9.399-1.343-16.697-3.057-21.889-5.146l20.056-8.475c8.477,2.968,18.332,4.823,29.56,5.571v-12.998
					c-13.903-1.187-24.506-3.25-31.799-6.191c-7.293-2.938-10.94-6.344-10.94-10.211c0-4.102,3.528-7.566,10.598-10.39
					c7.065-2.824,17.856-4.35,32.378-4.583V1561.539z M980.164,1586.724v-9.518c-7.1,0.828-10.653,2.361-10.653,4.606
					C969.511,1584.234,973.064,1585.874,980.164,1586.724z M999.081,1600.418v10.06c7.868-0.671,11.802-2.333,11.802-4.991
					C1010.882,1603.064,1006.949,1601.374,999.081,1600.418z"/>
			</g>
			<g>
				<path style="fill:#FEC463;" d="M984.99,1561.539h19.026v5.299c15.36,0.491,28.648,2.462,39.88,5.918l-20.973,8.822
					c-7.64-2.168-14.056-3.521-19.253-4.063v11.183c29.113,2.992,43.665,8.537,43.665,16.635c0,4.075-3.706,7.504-11.113,10.291
					c-7.412,2.784-18.342,4.615-32.78,5.495v6.731h-18.679v-6.656h-3.092c-7.03,0-15.24-0.669-24.639-2.009
					c-9.399-1.343-16.693-3.057-21.885-5.146l20.052-8.475c8.477,2.968,18.337,4.823,29.564,5.571v-12.998
					c-13.902-1.187-24.506-3.25-31.799-6.191c-7.298-2.938-10.945-6.344-10.945-10.211c0-4.102,3.533-7.566,10.598-10.39
					c7.065-2.824,17.856-4.35,32.373-4.583V1561.539z M984.762,1586.724v-9.518c-7.105,0.828-10.657,2.361-10.657,4.606
					C974.104,1584.234,977.657,1585.874,984.762,1586.724z M1003.669,1600.418v10.06c7.867-0.671,11.807-2.333,11.807-4.991
					C1015.475,1603.064,1011.536,1601.374,1003.669,1600.418z"/>
			</g>
			<path style="opacity:0.4;fill:#FFF3CE;" d="M895.41,1629.323c65.639-22.211,131.287-44.421,197.105-66.575
				c-5.787-2.123-12.129-4.067-18.966-5.804c-65.287,21.929-130.455,43.895-195.519,65.899
				C883.217,1625.184,889.048,1627.349,895.41,1629.323z"/>
			<path style="opacity:0.4;fill:#FFF3CE;" d="M1115.668,1574.302c-4.682-3.297-10.44-6.389-17.168-9.208
				c-65.49,22.046-130.817,44.148-196.134,66.251c8.438,2.292,17.698,4.254,27.587,5.839
				C991.926,1616.249,1053.849,1595.293,1115.668,1574.302z"/>
		</g>
	</g>
	<g>
		<g>
			<path style="fill:#F9A65D;" d="M1140.52,1562.941c-27.394-18.76-84.6-31.667-150.744-31.667
				c-66.149,0-123.35,12.907-150.75,31.667h-17.505v25.039h0.273c0,31.32,75.206,56.708,167.982,56.708
				c92.77,0,167.972-25.388,167.972-56.708v-25.039H1140.52z"/>
			<path style="fill:#FEC463;" d="M1157.748,1563.209c0,31.318-75.202,56.708-167.972,56.708
				c-92.775,0-167.982-25.39-167.982-56.708c0-31.318,75.206-56.708,167.982-56.708
				C1082.546,1506.501,1157.748,1531.891,1157.748,1563.209z"/>
			<g>
				<ellipse style="fill:#FFD686;" cx="989.776" cy="1563.209" rx="139.552" ry="47.111"/>
				<path style="fill:#FFDA67;" d="M875.314,1604.706c79.046-26.74,158.062-53.49,237.352-80.148
					c-5.822-2.106-12.094-4.068-18.793-5.856c-78.858,26.473-157.562,53-236.098,79.581
					C863.126,1600.574,868.997,1602.719,875.314,1604.706z"/>
				<path style="fill:#FFDA67;" d="M1136.71,1535.743c-5.183-3.146-11.188-6.119-17.975-8.864
					c-79.021,26.566-157.77,53.225-236.544,79.876c8.255,2.324,17.193,4.377,26.676,6.141
					C984.91,1587.212,1060.895,1561.507,1136.71,1535.743z"/>
				<ellipse style="fill:#FFD686;" cx="989.776" cy="1563.209" rx="139.552" ry="47.111"/>
				<path style="fill:#FFD686;" d="M1065.913,1523.736c-21.899-4.823-48.04-7.638-76.138-7.638
					c-77.074,0-139.552,21.092-139.552,47.111c0,9.461,8.289,18.26,22.504,25.64
					C937.019,1567.108,1001.409,1545.405,1065.913,1523.736z"/>
				<path style="fill:#FFD686;" d="M938.981,1607.09c15.746,2.081,32.869,3.23,50.795,3.23c77.069,0,139.552-21.092,139.552-47.111
					c0-6.102-3.463-11.926-9.721-17.274C1059.478,1566.348,999.259,1586.726,938.981,1607.09z"/>
				<path style="fill:#FAA955;" d="M856.254,1566.407c0-26.019,62.478-47.111,139.547-47.111c47.505,0,89.431,8.019,114.64,20.257
					c-24.178-14.022-69.147-23.456-120.665-23.456c-77.074,0-139.552,21.092-139.552,47.111c0,9.983,9.226,19.234,24.912,26.854
					C863.151,1583.109,856.254,1575.033,856.254,1566.407z"/>
			</g>
			<g>
				<path style="fill:#FEC463;" d="M984.99,1530.125h19.026v5.301c15.36,0.491,28.648,2.462,39.88,5.918l-20.973,8.819
					c-7.64-2.165-14.056-3.518-19.253-4.06v11.18c29.113,2.992,43.665,8.537,43.665,16.635c0,4.078-3.706,7.506-11.113,10.291
					c-7.412,2.787-18.342,4.618-32.78,5.495v6.731h-18.679v-6.654h-3.092c-7.03,0-15.24-0.672-24.639-2.012
					c-9.399-1.34-16.693-3.057-21.885-5.146l20.052-8.472c8.477,2.965,18.337,4.823,29.564,5.571v-12.998
					c-13.902-1.187-24.506-3.25-31.799-6.191c-7.298-2.941-10.945-6.344-10.945-10.214c0-4.1,3.533-7.563,10.598-10.387
					c7.065-2.824,17.856-4.353,32.373-4.583V1530.125z M984.762,1555.311v-9.518c-7.105,0.825-10.657,2.361-10.657,4.603
					C974.104,1552.822,977.657,1554.459,984.762,1555.311z M1003.669,1569.006v10.058c7.867-0.669,11.807-2.334,11.807-4.989
					C1015.475,1571.649,1011.536,1569.96,1003.669,1569.006z"/>
			</g>
			<g>
				<path style="fill:#F9A65D;" d="M980.401,1530.125h19.016v5.301c15.359,0.491,28.657,2.462,39.885,5.918l-20.968,8.819
					c-7.645-2.165-14.061-3.518-19.254-4.06v11.18c29.103,2.992,43.66,8.537,43.66,16.635c0,4.078-3.706,7.506-11.118,10.291
					c-7.412,2.787-18.332,4.618-32.775,5.495v6.731h-18.684v-6.654h-3.092c-7.026,0-15.24-0.672-24.635-2.012
					c-9.399-1.34-16.697-3.057-21.889-5.146l20.056-8.472c8.477,2.965,18.332,4.823,29.56,5.571v-12.998
					c-13.903-1.187-24.506-3.25-31.799-6.191c-7.293-2.941-10.94-6.344-10.94-10.214c0-4.1,3.528-7.563,10.598-10.387
					c7.065-2.824,17.856-4.353,32.378-4.583V1530.125z M980.164,1555.311v-9.518c-7.1,0.825-10.653,2.361-10.653,4.603
					C969.511,1552.822,973.064,1554.459,980.164,1555.311z M999.081,1569.006v10.058c7.868-0.669,11.802-2.334,11.802-4.989
					C1010.882,1571.649,1006.949,1569.96,999.081,1569.006z"/>
			</g>
			<g>
				<path style="fill:#FEC463;" d="M984.99,1530.125h19.026v5.301c15.36,0.491,28.648,2.462,39.88,5.918l-20.973,8.819
					c-7.64-2.165-14.056-3.518-19.253-4.06v11.18c29.113,2.992,43.665,8.537,43.665,16.635c0,4.078-3.706,7.506-11.113,10.291
					c-7.412,2.787-18.342,4.618-32.78,5.495v6.731h-18.679v-6.654h-3.092c-7.03,0-15.24-0.672-24.639-2.012
					c-9.399-1.34-16.693-3.057-21.885-5.146l20.052-8.472c8.477,2.965,18.337,4.823,29.564,5.571v-12.998
					c-13.902-1.187-24.506-3.25-31.799-6.191c-7.298-2.941-10.945-6.344-10.945-10.214c0-4.1,3.533-7.563,10.598-10.387
					c7.065-2.824,17.856-4.353,32.373-4.583V1530.125z M984.762,1555.311v-9.518c-7.105,0.825-10.657,2.361-10.657,4.603
					C974.104,1552.822,977.657,1554.459,984.762,1555.311z M1003.669,1569.006v10.058c7.867-0.669,11.807-2.334,11.807-4.989
					C1015.475,1571.649,1011.536,1569.96,1003.669,1569.006z"/>
			</g>
			<path style="opacity:0.4;fill:#FFF3CE;" d="M895.41,1597.909c65.639-22.209,131.287-44.421,197.105-66.573
				c-5.787-2.123-12.129-4.07-18.966-5.804c-65.287,21.929-130.455,43.895-195.519,65.899
				C883.217,1593.769,889.048,1595.937,895.41,1597.909z"/>
			<path style="opacity:0.4;fill:#FFF3CE;" d="M1115.668,1542.89c-4.682-3.3-10.44-6.389-17.168-9.208
				c-65.49,22.046-130.817,44.146-196.134,66.251c8.438,2.292,17.698,4.251,27.587,5.839
				C991.926,1584.834,1053.849,1563.878,1115.668,1542.89z"/>
		</g>
		<g>
			<path style="fill:#F9A65D;" d="M1140.52,1529.379c-27.394-18.761-84.6-31.67-150.744-31.67c-66.149,0-123.35,12.909-150.75,31.67
				h-17.505v25.038h0.273c0,31.318,75.206,56.708,167.982,56.708c92.77,0,167.972-25.39,167.972-56.708v-25.038H1140.52z"/>
			<path style="fill:#FEC463;" d="M1157.748,1529.646c0,31.318-75.202,56.708-167.972,56.708
				c-92.775,0-167.982-25.39-167.982-56.708c0-31.321,75.206-56.708,167.982-56.708
				C1082.546,1472.938,1157.748,1498.326,1157.748,1529.646z"/>
			<g>
				<path style="fill:#FFD686;" d="M1129.328,1529.646c0,26.017-62.483,47.111-139.552,47.111
					c-77.074,0-139.552-21.095-139.552-47.111c0-26.019,62.478-47.113,139.552-47.113
					C1066.845,1482.533,1129.328,1503.627,1129.328,1529.646z"/>
				<path style="fill:#FFDA67;" d="M875.314,1571.144c79.046-26.743,158.062-53.49,237.352-80.148
					c-5.822-2.106-12.094-4.068-18.793-5.856c-78.858,26.472-157.562,52.997-236.098,79.578
					C863.126,1567.009,868.997,1569.157,875.314,1571.144z"/>
				<path style="fill:#FFDA67;" d="M1136.71,1502.18c-5.183-3.149-11.188-6.119-17.975-8.863
					c-79.021,26.567-157.77,53.225-236.544,79.873c8.255,2.326,17.193,4.38,26.676,6.144
					C984.91,1553.649,1060.895,1527.945,1136.71,1502.18z"/>
				<path style="fill:#FFD686;" d="M1129.328,1529.646c0,26.017-62.483,47.111-139.552,47.111
					c-77.074,0-139.552-21.095-139.552-47.111c0-26.019,62.478-47.113,139.552-47.113
					C1066.845,1482.533,1129.328,1503.627,1129.328,1529.646z"/>
				<path style="fill:#FFD686;" d="M1065.913,1490.173c-21.899-4.825-48.04-7.64-76.138-7.64
					c-77.074,0-139.552,21.094-139.552,47.113c0,9.458,8.289,18.26,22.504,25.64
					C937.019,1533.546,1001.409,1511.84,1065.913,1490.173z"/>
				<path style="fill:#FFD686;" d="M938.981,1573.527c15.746,2.079,32.869,3.231,50.795,3.231
					c77.069,0,139.552-21.095,139.552-47.111c0-6.102-3.463-11.926-9.721-17.277
					C1059.478,1532.783,999.259,1553.164,938.981,1573.527z"/>
				<path style="fill:#FAA955;" d="M856.254,1532.845c0-26.019,62.478-47.111,139.547-47.111c47.505,0,89.431,8.017,114.64,20.257
					c-24.178-14.024-69.147-23.457-120.665-23.457c-77.074,0-139.552,21.094-139.552,47.113c0,9.984,9.226,19.234,24.912,26.854
					C863.151,1549.547,856.254,1541.471,856.254,1532.845z"/>
			</g>
			<g>
				<path style="fill:#FEC463;" d="M984.99,1496.562h19.026v5.299c15.36,0.49,28.648,2.465,39.88,5.92l-20.973,8.819
					c-7.64-2.165-14.056-3.52-19.253-4.063v11.183c29.113,2.993,43.665,8.537,43.665,16.635c0,4.075-3.706,7.506-11.113,10.291
					c-7.412,2.787-18.342,4.618-32.78,5.495v6.73h-18.679v-6.654h-3.092c-7.03,0-15.24-0.671-24.639-2.012
					c-9.399-1.34-16.693-3.057-21.885-5.145l20.052-8.472c8.477,2.965,18.337,4.823,29.564,5.571v-13.001
					c-13.902-1.184-24.506-3.25-31.799-6.188c-7.298-2.941-10.945-6.344-10.945-10.214c0-4.1,3.533-7.563,10.598-10.388
					c7.065-2.824,17.856-4.353,32.373-4.585V1496.562z M984.762,1521.746v-9.516c-7.105,0.825-10.657,2.358-10.657,4.603
					C974.104,1519.259,977.657,1520.896,984.762,1521.746z M1003.669,1535.443v10.058c7.867-0.669,11.807-2.333,11.807-4.989
					C1015.475,1538.087,1011.536,1536.397,1003.669,1535.443z"/>
			</g>
			<g>
				<path style="fill:#F9A65D;" d="M980.401,1496.562h19.016v5.299c15.359,0.49,28.657,2.465,39.885,5.92l-20.968,8.819
					c-7.645-2.165-14.061-3.52-19.254-4.063v11.183c29.103,2.993,43.66,8.537,43.66,16.635c0,4.075-3.706,7.506-11.118,10.291
					c-7.412,2.787-18.332,4.618-32.775,5.495v6.73h-18.684v-6.654h-3.092c-7.026,0-15.24-0.671-24.635-2.012
					c-9.399-1.34-16.697-3.057-21.889-5.145l20.056-8.472c8.477,2.965,18.332,4.823,29.56,5.571v-13.001
					c-13.903-1.184-24.506-3.25-31.799-6.188c-7.293-2.941-10.94-6.344-10.94-10.214c0-4.1,3.528-7.563,10.598-10.388
					c7.065-2.824,17.856-4.353,32.378-4.585V1496.562z M980.164,1521.746v-9.516c-7.1,0.825-10.653,2.358-10.653,4.603
					C969.511,1519.259,973.064,1520.896,980.164,1521.746z M999.081,1535.443v10.058c7.868-0.669,11.802-2.333,11.802-4.989
					C1010.882,1538.087,1006.949,1536.397,999.081,1535.443z"/>
			</g>
			<g>
				<path style="fill:#FEC463;" d="M984.99,1496.562h19.026v5.299c15.36,0.49,28.648,2.465,39.88,5.92l-20.973,8.819
					c-7.64-2.165-14.056-3.52-19.253-4.063v11.183c29.113,2.993,43.665,8.537,43.665,16.635c0,4.075-3.706,7.506-11.113,10.291
					c-7.412,2.787-18.342,4.618-32.78,5.495v6.73h-18.679v-6.654h-3.092c-7.03,0-15.24-0.671-24.639-2.012
					c-9.399-1.34-16.693-3.057-21.885-5.145l20.052-8.472c8.477,2.965,18.337,4.823,29.564,5.571v-13.001
					c-13.902-1.184-24.506-3.25-31.799-6.188c-7.298-2.941-10.945-6.344-10.945-10.214c0-4.1,3.533-7.563,10.598-10.388
					c7.065-2.824,17.856-4.353,32.373-4.585V1496.562z M984.762,1521.746v-9.516c-7.105,0.825-10.657,2.358-10.657,4.603
					C974.104,1519.259,977.657,1520.896,984.762,1521.746z M1003.669,1535.443v10.058c7.867-0.669,11.807-2.333,11.807-4.989
					C1015.475,1538.087,1011.536,1536.397,1003.669,1535.443z"/>
			</g>
			<path style="opacity:0.4;fill:#FFF3CE;" d="M895.41,1564.346c65.639-22.212,131.287-44.421,197.105-66.573
				c-5.787-2.123-12.129-4.071-18.966-5.807c-65.287,21.931-130.455,43.898-195.519,65.901
				C883.217,1560.207,889.048,1562.374,895.41,1564.346z"/>
			<path style="opacity:0.4;fill:#FFF3CE;" d="M1115.668,1509.327c-4.682-3.3-10.44-6.389-17.168-9.208
				c-65.49,22.046-130.817,44.146-196.134,66.248c8.438,2.294,17.698,4.254,27.587,5.842
				C991.926,1551.271,1053.849,1530.316,1115.668,1509.327z"/>
		</g>
		<g>
			<path style="fill:#F9A65D;" d="M1140.52,1492.459c-27.394-18.76-84.6-31.67-150.744-31.67c-66.149,0-123.35,12.91-150.75,31.67
				h-17.505v25.038h0.273c0,31.318,75.206,56.708,167.982,56.708c92.77,0,167.972-25.39,167.972-56.708v-25.038H1140.52z"/>
			<path style="fill:#FEC463;" d="M1157.748,1492.725c0,31.321-75.202,56.71-167.972,56.71c-92.775,0-167.982-25.39-167.982-56.71
				c0-31.318,75.206-56.706,167.982-56.706C1082.546,1436.019,1157.748,1461.406,1157.748,1492.725z"/>
			<g>
				<path style="fill:#FFD686;" d="M1129.328,1492.725c0,26.019-62.483,47.113-139.552,47.113
					c-77.074,0-139.552-21.094-139.552-47.113c0-26.017,62.478-47.111,139.552-47.111
					C1066.845,1445.613,1129.328,1466.708,1129.328,1492.725z"/>
				<path style="fill:#FFDA67;" d="M875.314,1534.225c79.046-26.743,158.062-53.49,237.352-80.149
					c-5.822-2.108-12.094-4.068-18.793-5.856c-78.858,26.473-157.562,52.997-236.098,79.579
					C863.126,1530.09,868.997,1532.235,875.314,1534.225z"/>
				<path style="fill:#FFDA67;" d="M1136.71,1465.261c-5.183-3.149-11.188-6.119-17.975-8.864
					c-79.021,26.567-157.77,53.225-236.544,79.874c8.255,2.326,17.193,4.38,26.676,6.144
					C984.91,1516.73,1060.895,1491.025,1136.71,1465.261z"/>
				<path style="fill:#FFD686;" d="M1129.328,1492.725c0,26.019-62.483,47.113-139.552,47.113
					c-77.074,0-139.552-21.094-139.552-47.113c0-26.017,62.478-47.111,139.552-47.111
					C1066.845,1445.613,1129.328,1466.708,1129.328,1492.725z"/>
				<path style="fill:#FFD686;" d="M1065.913,1453.254c-21.899-4.826-48.04-7.64-76.138-7.64
					c-77.074,0-139.552,21.094-139.552,47.114c0,9.458,8.289,18.26,22.504,25.64
					C937.019,1496.626,1001.409,1474.92,1065.913,1453.254z"/>
				<path style="fill:#FFD686;" d="M938.981,1536.608c15.746,2.081,32.869,3.23,50.795,3.23c77.069,0,139.552-21.094,139.552-47.111
					c0-6.102-3.463-11.926-9.721-17.277C1059.478,1495.863,999.259,1516.244,938.981,1536.608z"/>
				<path style="fill:#FAA955;" d="M856.254,1495.925c0-26.019,62.478-47.111,139.547-47.111c47.505,0,89.431,8.017,114.64,20.257
					c-24.178-14.024-69.147-23.458-120.665-23.458c-77.074,0-139.552,21.094-139.552,47.114c0,9.981,9.226,19.234,24.912,26.854
					C863.151,1512.627,856.254,1504.551,856.254,1495.925z"/>
			</g>
			<g>
				<path style="fill:#FEC463;" d="M984.99,1459.643h19.026v5.299c15.36,0.491,28.648,2.465,39.88,5.921l-20.973,8.819
					c-7.64-2.165-14.056-3.521-19.253-4.063v11.182c29.113,2.992,43.665,8.537,43.665,16.635c0,4.075-3.706,7.506-11.113,10.291
					c-7.412,2.787-18.342,4.618-32.78,5.495v6.731h-18.679v-6.654h-3.092c-7.03,0-15.24-0.672-24.639-2.012
					c-9.399-1.34-16.693-3.057-21.885-5.146l20.052-8.472c8.477,2.965,18.337,4.823,29.564,5.571v-13.001
					c-13.902-1.186-24.506-3.25-31.799-6.188c-7.298-2.941-10.945-6.344-10.945-10.214c0-4.102,3.533-7.563,10.598-10.387
					c7.065-2.824,17.856-4.353,32.373-4.585V1459.643z M984.762,1484.827v-9.517c-7.105,0.827-10.657,2.361-10.657,4.605
					C974.104,1482.34,977.657,1483.977,984.762,1484.827z M1003.669,1498.522v10.06c7.867-0.672,11.807-2.334,11.807-4.989
					C1015.475,1501.167,1011.536,1499.478,1003.669,1498.522z"/>
			</g>
			<g>
				<path style="fill:#F9A65D;" d="M980.401,1459.643h19.016v5.299c15.359,0.491,28.657,2.465,39.885,5.921l-20.968,8.819
					c-7.645-2.165-14.061-3.521-19.254-4.063v11.182c29.103,2.992,43.66,8.537,43.66,16.635c0,4.075-3.706,7.506-11.118,10.291
					c-7.412,2.787-18.332,4.618-32.775,5.495v6.731h-18.684v-6.654h-3.092c-7.026,0-15.24-0.672-24.635-2.012
					c-9.399-1.34-16.697-3.057-21.889-5.146l20.056-8.472c8.477,2.965,18.332,4.823,29.56,5.571v-13.001
					c-13.903-1.186-24.506-3.25-31.799-6.188c-7.293-2.941-10.94-6.344-10.94-10.214c0-4.102,3.528-7.563,10.598-10.387
					c7.065-2.824,17.856-4.353,32.378-4.585V1459.643z M980.164,1484.827v-9.517c-7.1,0.827-10.653,2.361-10.653,4.605
					C969.511,1482.34,973.064,1483.977,980.164,1484.827z M999.081,1498.522v10.06c7.868-0.672,11.802-2.334,11.802-4.989
					C1010.882,1501.167,1006.949,1499.478,999.081,1498.522z"/>
			</g>
			<g>
				<path style="fill:#FEC463;" d="M984.99,1459.643h19.026v5.299c15.36,0.491,28.648,2.465,39.88,5.921l-20.973,8.819
					c-7.64-2.165-14.056-3.521-19.253-4.063v11.182c29.113,2.992,43.665,8.537,43.665,16.635c0,4.075-3.706,7.506-11.113,10.291
					c-7.412,2.787-18.342,4.618-32.78,5.495v6.731h-18.679v-6.654h-3.092c-7.03,0-15.24-0.672-24.639-2.012
					c-9.399-1.34-16.693-3.057-21.885-5.146l20.052-8.472c8.477,2.965,18.337,4.823,29.564,5.571v-13.001
					c-13.902-1.186-24.506-3.25-31.799-6.188c-7.298-2.941-10.945-6.344-10.945-10.214c0-4.102,3.533-7.563,10.598-10.387
					c7.065-2.824,17.856-4.353,32.373-4.585V1459.643z M984.762,1484.827v-9.517c-7.105,0.827-10.657,2.361-10.657,4.605
					C974.104,1482.34,977.657,1483.977,984.762,1484.827z M1003.669,1498.522v10.06c7.867-0.672,11.807-2.334,11.807-4.989
					C1015.475,1501.167,1011.536,1499.478,1003.669,1498.522z"/>
			</g>
			<path style="opacity:0.4;fill:#FFF3CE;" d="M895.41,1527.427c65.639-22.211,131.287-44.421,197.105-66.576
				c-5.787-2.123-12.129-4.067-18.966-5.804c-65.287,21.929-130.455,43.896-195.519,65.902
				C883.217,1523.287,889.048,1525.454,895.41,1527.427z"/>
			<path style="opacity:0.4;fill:#FFF3CE;" d="M1115.668,1472.408c-4.682-3.3-10.44-6.389-17.168-9.208
				c-65.49,22.046-130.817,44.146-196.134,66.249c8.438,2.294,17.698,4.253,27.587,5.841
				C991.926,1514.352,1053.849,1493.396,1115.668,1472.408z"/>
		</g>
		<g>
			<path style="fill:#F9A65D;" d="M1140.52,1458.897c-27.394-18.761-84.6-31.67-150.744-31.67c-66.149,0-123.35,12.909-150.75,31.67
				h-17.505v25.038h0.273c0,31.318,75.206,56.708,167.982,56.708c92.77,0,167.972-25.39,167.972-56.708v-25.038H1140.52z"/>
			<path style="fill:#FEC463;" d="M1157.748,1459.162c0,31.321-75.202,56.708-167.972,56.708
				c-92.775,0-167.982-25.387-167.982-56.708c0-31.318,75.206-56.708,167.982-56.708
				C1082.546,1402.454,1157.748,1427.844,1157.748,1459.162z"/>
			<g>
				<ellipse style="fill:#FFD686;" cx="989.776" cy="1459.162" rx="139.552" ry="47.111"/>
				<path style="fill:#FFDA67;" d="M875.314,1500.659c79.046-26.74,158.062-53.49,237.352-80.146
					c-5.822-2.109-12.094-4.068-18.793-5.856c-78.858,26.472-157.562,52.997-236.098,79.578
					C863.126,1496.527,868.997,1498.672,875.314,1500.659z"/>
				<path style="fill:#FFDA67;" d="M1136.71,1431.699c-5.183-3.149-11.188-6.122-17.975-8.866
					c-79.021,26.569-157.77,53.225-236.544,79.876c8.255,2.326,17.193,4.38,26.676,6.144
					C984.91,1483.167,1060.895,1457.46,1136.71,1431.699z"/>
				<ellipse style="fill:#FFD686;" cx="989.776" cy="1459.162" rx="139.552" ry="47.111"/>
				<path style="fill:#FFD686;" d="M1065.913,1419.688c-21.899-4.823-48.04-7.638-76.138-7.638
					c-77.074,0-139.552,21.094-139.552,47.111c0,9.461,8.289,18.263,22.504,25.643
					C937.019,1463.064,1001.409,1441.358,1065.913,1419.688z"/>
				<path style="fill:#FFD686;" d="M938.981,1503.045c15.746,2.078,32.869,3.228,50.795,3.228
					c77.069,0,139.552-21.092,139.552-47.111c0-6.099-3.463-11.925-9.721-17.274
					C1059.478,1462.301,999.259,1482.682,938.981,1503.045z"/>
				<path style="fill:#FAA955;" d="M856.254,1462.363c0-26.019,62.478-47.113,139.547-47.113c47.505,0,89.431,8.019,114.64,20.257
					c-24.178-14.021-69.147-23.455-120.665-23.455c-77.074,0-139.552,21.094-139.552,47.111c0,9.984,9.226,19.236,24.912,26.857
					C863.151,1479.065,856.254,1470.986,856.254,1462.363z"/>
			</g>
			<g>
				<path style="fill:#FEC463;" d="M984.99,1426.08h19.026v5.299c15.36,0.49,28.648,2.462,39.88,5.918l-20.973,8.821
					c-7.64-2.165-14.056-3.52-19.253-4.062v11.182c29.113,2.99,43.665,8.537,43.665,16.635c0,4.075-3.706,7.504-11.113,10.291
					c-7.412,2.784-18.342,4.615-32.78,5.492v6.734h-18.679v-6.654h-3.092c-7.03,0-15.24-0.671-24.639-2.012
					c-9.399-1.343-16.693-3.057-21.885-5.145l20.052-8.475c8.477,2.967,18.337,4.823,29.564,5.571v-12.998
					c-13.902-1.187-24.506-3.25-31.799-6.191c-7.298-2.938-10.945-6.344-10.945-10.212c0-4.103,3.533-7.566,10.598-10.39
					c7.065-2.824,17.856-4.35,32.373-4.583V1426.08z M984.762,1451.264v-9.518c-7.105,0.828-10.657,2.361-10.657,4.605
					C974.104,1448.775,977.657,1450.414,984.762,1451.264z M1003.669,1464.959v10.06c7.867-0.671,11.807-2.333,11.807-4.992
					C1015.475,1467.604,1011.536,1465.915,1003.669,1464.959z"/>
			</g>
			<g>
				<path style="fill:#F9A65D;" d="M980.401,1426.08h19.016v5.299c15.359,0.49,28.657,2.462,39.885,5.918l-20.968,8.821
					c-7.645-2.165-14.061-3.52-19.254-4.062v11.182c29.103,2.99,43.66,8.537,43.66,16.635c0,4.075-3.706,7.504-11.118,10.291
					c-7.412,2.784-18.332,4.615-32.775,5.492v6.734h-18.684v-6.654h-3.092c-7.026,0-15.24-0.671-24.635-2.012
					c-9.399-1.343-16.697-3.057-21.889-5.145l20.056-8.475c8.477,2.967,18.332,4.823,29.56,5.571v-12.998
					c-13.903-1.187-24.506-3.25-31.799-6.191c-7.293-2.938-10.94-6.344-10.94-10.212c0-4.103,3.528-7.566,10.598-10.39
					c7.065-2.824,17.856-4.35,32.378-4.583V1426.08z M980.164,1451.264v-9.518c-7.1,0.828-10.653,2.361-10.653,4.605
					C969.511,1448.775,973.064,1450.414,980.164,1451.264z M999.081,1464.959v10.06c7.868-0.671,11.802-2.333,11.802-4.992
					C1010.882,1467.604,1006.949,1465.915,999.081,1464.959z"/>
			</g>
			<g>
				<path style="fill:#FEC463;" d="M984.99,1426.08h19.026v5.299c15.36,0.49,28.648,2.462,39.88,5.918l-20.973,8.821
					c-7.64-2.165-14.056-3.52-19.253-4.062v11.182c29.113,2.99,43.665,8.537,43.665,16.635c0,4.075-3.706,7.504-11.113,10.291
					c-7.412,2.784-18.342,4.615-32.78,5.492v6.734h-18.679v-6.654h-3.092c-7.03,0-15.24-0.671-24.639-2.012
					c-9.399-1.343-16.693-3.057-21.885-5.145l20.052-8.475c8.477,2.967,18.337,4.823,29.564,5.571v-12.998
					c-13.902-1.187-24.506-3.25-31.799-6.191c-7.298-2.938-10.945-6.344-10.945-10.212c0-4.103,3.533-7.566,10.598-10.39
					c7.065-2.824,17.856-4.35,32.373-4.583V1426.08z M984.762,1451.264v-9.518c-7.105,0.828-10.657,2.361-10.657,4.605
					C974.104,1448.775,977.657,1450.414,984.762,1451.264z M1003.669,1464.959v10.06c7.867-0.671,11.807-2.333,11.807-4.992
					C1015.475,1467.604,1011.536,1465.915,1003.669,1464.959z"/>
			</g>
			<path style="opacity:0.4;fill:#FFF3CE;" d="M895.41,1493.864c65.639-22.211,131.287-44.421,197.105-66.575
				c-5.787-2.123-12.129-4.07-18.966-5.804c-65.287,21.929-130.455,43.895-195.519,65.899
				C883.217,1489.722,889.048,1491.89,895.41,1493.864z"/>
			<path style="opacity:0.4;fill:#FFF3CE;" d="M1115.668,1438.843c-4.682-3.297-10.44-6.389-17.168-9.208
				c-65.49,22.048-130.817,44.148-196.134,66.251c8.438,2.292,17.698,4.254,27.587,5.839
				C991.926,1480.789,1053.849,1459.833,1115.668,1438.843z"/>
		</g>
	</g>
</g>
<g>
	<g>
		<g>
			<path style="fill:#F9A65D;" d="M1471.217,1716.309c-27.39-18.76-84.596-31.667-150.74-31.667
				c-66.149,0-123.35,12.907-150.75,31.667h-17.509v25.038h0.278c0,31.32,75.206,56.71,167.981,56.71
				c92.771,0,167.972-25.39,167.972-56.71v-25.038H1471.217z"/>
			<ellipse style="fill:#FEC463;" cx="1320.472" cy="1716.577" rx="167.976" ry="56.708"/>
			<g>
				<path style="fill:#FFD686;" d="M1460.029,1716.577c0,26.019-62.483,47.111-139.557,47.111
					c-77.069,0-139.547-21.092-139.547-47.111c0-26.02,62.478-47.111,139.547-47.111
					C1397.547,1669.466,1460.029,1690.557,1460.029,1716.577z"/>
				<path style="fill:#FFDA67;" d="M1206.016,1758.075c79.046-26.741,158.062-53.49,237.351-80.149
					c-5.822-2.105-12.094-4.065-18.793-5.854c-78.858,26.47-157.567,52.997-236.103,79.578
					C1193.822,1753.942,1199.693,1756.088,1206.016,1758.075z"/>
				<path style="fill:#FFDA67;" d="M1467.412,1689.111c-5.182-3.146-11.188-6.119-17.976-8.864
					c-79.021,26.567-157.775,53.225-236.544,79.876c8.255,2.326,17.193,4.378,26.676,6.141
					C1315.612,1740.582,1391.596,1714.875,1467.412,1689.111z"/>
				<path style="fill:#FFD686;" d="M1460.029,1716.577c0,26.019-62.483,47.111-139.557,47.111
					c-77.069,0-139.547-21.092-139.547-47.111c0-26.02,62.478-47.111,139.547-47.111
					C1397.547,1669.466,1460.029,1690.557,1460.029,1716.577z"/>
				<path style="fill:#FFD686;" d="M1396.615,1677.104c-21.899-4.823-48.04-7.638-76.143-7.638
					c-77.069,0-139.547,21.092-139.547,47.111c0,9.461,8.284,18.26,22.504,25.643
					C1267.72,1720.476,1332.111,1698.773,1396.615,1677.104z"/>
				<path style="fill:#FFD686;" d="M1269.682,1760.46c15.746,2.078,32.869,3.228,50.79,3.228
					c77.075,0,139.557-21.092,139.557-47.111c0-6.099-3.468-11.926-9.716-17.274
					C1390.179,1719.716,1329.96,1740.097,1269.682,1760.46z"/>
				<path style="fill:#FAA955;" d="M1186.955,1719.775c0-26.017,62.478-47.111,139.547-47.111c47.505,0,89.431,8.019,114.635,20.257
					c-24.174-14.022-69.142-23.455-120.665-23.455c-77.069,0-139.547,21.092-139.547,47.111c0,9.983,9.225,19.236,24.912,26.854
					C1193.852,1736.48,1186.955,1728.401,1186.955,1719.775z"/>
			</g>
			<g>
				<path style="fill:#FEC463;" d="M1315.691,1683.493h19.026v5.301c15.359,0.491,28.648,2.462,39.88,5.918l-20.973,8.822
					c-7.64-2.168-14.056-3.521-19.254-4.063v11.18c29.108,2.992,43.66,8.537,43.66,16.638c0,4.075-3.701,7.504-11.109,10.291
					c-7.412,2.784-18.342,4.615-32.78,5.492v6.734h-18.679v-6.656h-3.091c-7.031,0-15.245-0.672-24.64-2.012
					c-9.399-1.34-16.692-3.055-21.889-5.146l20.056-8.472c8.477,2.966,18.332,4.823,29.564,5.571v-12.998
					c-13.902-1.187-24.505-3.25-31.798-6.191c-7.298-2.941-10.945-6.344-10.945-10.214c0-4.1,3.533-7.563,10.598-10.387
					c7.065-2.824,17.856-4.353,32.374-4.583V1683.493z M1315.463,1708.679v-9.518c-7.104,0.825-10.657,2.361-10.657,4.606
					C1304.806,1706.19,1308.358,1707.829,1315.463,1708.679z M1334.37,1722.374v10.06c7.868-0.671,11.807-2.333,11.807-4.991
					C1346.177,1725.02,1342.238,1723.33,1334.37,1722.374z"/>
			</g>
			<g>
				<path style="fill:#F9A65D;" d="M1311.103,1683.493h19.016v5.301c15.36,0.491,28.653,2.462,39.885,5.918l-20.978,8.822
					c-7.635-2.168-14.052-3.521-19.244-4.063v11.18c29.103,2.992,43.66,8.537,43.66,16.638c0,4.075-3.706,7.504-11.118,10.291
					c-7.412,2.784-18.332,4.615-32.775,5.492v6.734h-18.684v-6.656h-3.092c-7.026,0-15.24-0.672-24.634-2.012
					c-9.399-1.34-16.698-3.055-21.89-5.146l20.056-8.472c8.477,2.966,18.332,4.823,29.56,5.571v-12.998
					c-13.903-1.187-24.506-3.25-31.799-6.191s-10.94-6.344-10.94-10.214c0-4.1,3.528-7.563,10.598-10.387
					c7.065-2.824,17.857-4.353,32.379-4.583V1683.493z M1310.865,1708.679v-9.518c-7.1,0.825-10.652,2.361-10.652,4.606
					C1300.213,1706.19,1303.765,1707.829,1310.865,1708.679z M1329.782,1722.374v10.06c7.863-0.671,11.802-2.333,11.802-4.991
					C1341.584,1725.02,1337.645,1723.33,1329.782,1722.374z"/>
			</g>
			<g>
				<path style="fill:#FEC463;" d="M1315.691,1683.493h19.026v5.301c15.359,0.491,28.648,2.462,39.88,5.918l-20.973,8.822
					c-7.64-2.168-14.056-3.521-19.254-4.063v11.18c29.108,2.992,43.66,8.537,43.66,16.638c0,4.075-3.701,7.504-11.109,10.291
					c-7.412,2.784-18.342,4.615-32.78,5.492v6.734h-18.679v-6.656h-3.091c-7.031,0-15.245-0.672-24.64-2.012
					c-9.399-1.34-16.692-3.055-21.889-5.146l20.056-8.472c8.477,2.966,18.332,4.823,29.564,5.571v-12.998
					c-13.902-1.187-24.505-3.25-31.798-6.191c-7.298-2.941-10.945-6.344-10.945-10.214c0-4.1,3.533-7.563,10.598-10.387
					c7.065-2.824,17.856-4.353,32.374-4.583V1683.493z M1315.463,1708.679v-9.518c-7.104,0.825-10.657,2.361-10.657,4.606
					C1304.806,1706.19,1308.358,1707.829,1315.463,1708.679z M1334.37,1722.374v10.06c7.868-0.671,11.807-2.333,11.807-4.991
					C1346.177,1725.02,1342.238,1723.33,1334.37,1722.374z"/>
			</g>
			<path style="opacity:0.4;fill:#FFF3CE;" d="M1226.111,1751.279c65.639-22.211,131.288-44.421,197.1-66.575
				c-5.782-2.123-12.124-4.07-18.961-5.804c-65.287,21.929-130.46,43.895-195.519,65.899
				C1213.923,1747.137,1219.75,1749.305,1226.111,1751.279z"/>
			<path style="opacity:0.4;fill:#FFF3CE;" d="M1446.369,1696.258c-4.682-3.297-10.439-6.389-17.168-9.208
				c-65.49,22.046-130.817,44.146-196.134,66.248c8.438,2.294,17.698,4.254,27.587,5.842
				C1322.628,1738.202,1384.55,1717.248,1446.369,1696.258z"/>
		</g>
		<g>
			<path style="fill:#F9A65D;" d="M1471.217,1682.747c-27.39-18.761-84.596-31.67-150.74-31.67
				c-66.149,0-123.35,12.909-150.75,31.67h-17.509v25.038h0.278c0,31.321,75.206,56.708,167.981,56.708
				c92.771,0,167.972-25.387,167.972-56.708v-25.038H1471.217z"/>
			<ellipse style="fill:#FEC463;" cx="1320.472" cy="1683.014" rx="167.976" ry="56.708"/>
			<g>
				<path style="fill:#FFD686;" d="M1460.029,1683.014c0,26.019-62.483,47.111-139.557,47.111
					c-77.069,0-139.547-21.092-139.547-47.111c0-26.019,62.478-47.111,139.547-47.111
					C1397.547,1635.903,1460.029,1656.995,1460.029,1683.014z"/>
				<path style="fill:#FFDA67;" d="M1206.016,1724.512c79.046-26.74,158.062-53.49,237.351-80.148
					c-5.822-2.106-12.094-4.068-18.793-5.856c-78.858,26.472-157.567,52.997-236.103,79.578
					C1193.822,1720.38,1199.693,1722.525,1206.016,1724.512z"/>
				<path style="fill:#FFDA67;" d="M1467.412,1655.548c-5.182-3.149-11.188-6.119-17.976-8.864
					c-79.021,26.567-157.775,53.225-236.544,79.873c8.255,2.326,17.193,4.38,26.676,6.144
					C1315.612,1707.017,1391.596,1681.313,1467.412,1655.548z"/>
				<path style="fill:#FFD686;" d="M1460.029,1683.014c0,26.019-62.483,47.111-139.557,47.111
					c-77.069,0-139.547-21.092-139.547-47.111c0-26.019,62.478-47.111,139.547-47.111
					C1397.547,1635.903,1460.029,1656.995,1460.029,1683.014z"/>
				<path style="fill:#FFD686;" d="M1396.615,1643.541c-21.899-4.826-48.04-7.637-76.143-7.637
					c-77.069,0-139.547,21.092-139.547,47.111c0,9.459,8.284,18.26,22.504,25.64
					C1267.72,1686.914,1332.111,1665.21,1396.615,1643.541z"/>
				<path style="fill:#FFD686;" d="M1269.682,1726.895c15.746,2.081,32.869,3.231,50.79,3.231
					c77.075,0,139.557-21.092,139.557-47.111c0-6.101-3.468-11.926-9.716-17.274
					C1390.179,1686.151,1329.96,1706.532,1269.682,1726.895z"/>
				<path style="fill:#FAA955;" d="M1186.955,1686.213c0-26.019,62.478-47.111,139.547-47.111c47.505,0,89.431,8.019,114.635,20.257
					c-24.174-14.021-69.142-23.455-120.665-23.455c-77.069,0-139.547,21.092-139.547,47.111c0,9.984,9.225,19.234,24.912,26.854
					C1193.852,1702.915,1186.955,1694.839,1186.955,1686.213z"/>
			</g>
			<g>
				<path style="fill:#FEC463;" d="M1315.691,1649.93h19.026v5.301c15.359,0.491,28.648,2.463,39.88,5.918l-20.973,8.822
					c-7.64-2.167-14.056-3.522-19.254-4.063v11.181c29.108,2.992,43.66,8.537,43.66,16.635c0,4.075-3.701,7.506-11.109,10.291
					c-7.412,2.787-18.342,4.617-32.78,5.495v6.731h-18.679v-6.654h-3.091c-7.031,0-15.245-0.671-24.64-2.012
					c-9.399-1.34-16.692-3.057-21.889-5.145l20.056-8.472c8.477,2.965,18.332,4.823,29.564,5.571v-12.998
					c-13.902-1.187-24.505-3.25-31.798-6.191c-7.298-2.941-10.945-6.344-10.945-10.214c0-4.1,3.533-7.563,10.598-10.388
					c7.065-2.824,17.856-4.353,32.374-4.583V1649.93z M1315.463,1675.117v-9.518c-7.104,0.825-10.657,2.361-10.657,4.605
					C1304.806,1672.627,1308.358,1674.264,1315.463,1675.117z M1334.37,1688.811v10.058c7.868-0.669,11.807-2.333,11.807-4.989
					C1346.177,1691.454,1342.238,1689.765,1334.37,1688.811z"/>
			</g>
			<g>
				<path style="fill:#F9A65D;" d="M1311.103,1649.93h19.016v5.301c15.36,0.491,28.653,2.463,39.885,5.918l-20.978,8.822
					c-7.635-2.167-14.052-3.522-19.244-4.063v11.181c29.103,2.992,43.66,8.537,43.66,16.635c0,4.075-3.706,7.506-11.118,10.291
					c-7.412,2.787-18.332,4.617-32.775,5.495v6.731h-18.684v-6.654h-3.092c-7.026,0-15.24-0.671-24.634-2.012
					c-9.399-1.34-16.698-3.057-21.89-5.145l20.056-8.472c8.477,2.965,18.332,4.823,29.56,5.571v-12.998
					c-13.903-1.187-24.506-3.25-31.799-6.191c-7.293-2.941-10.94-6.344-10.94-10.214c0-4.1,3.528-7.563,10.598-10.388
					c7.065-2.824,17.857-4.353,32.379-4.583V1649.93z M1310.865,1675.117v-9.518c-7.1,0.825-10.652,2.361-10.652,4.605
					C1300.213,1672.627,1303.765,1674.264,1310.865,1675.117z M1329.782,1688.811v10.058c7.863-0.669,11.802-2.333,11.802-4.989
					C1341.584,1691.454,1337.645,1689.765,1329.782,1688.811z"/>
			</g>
			<g>
				<path style="fill:#FEC463;" d="M1315.691,1649.93h19.026v5.301c15.359,0.491,28.648,2.463,39.88,5.918l-20.973,8.822
					c-7.64-2.167-14.056-3.522-19.254-4.063v11.181c29.108,2.992,43.66,8.537,43.66,16.635c0,4.075-3.701,7.506-11.109,10.291
					c-7.412,2.787-18.342,4.617-32.78,5.495v6.731h-18.679v-6.654h-3.091c-7.031,0-15.245-0.671-24.64-2.012
					c-9.399-1.34-16.692-3.057-21.889-5.145l20.056-8.472c8.477,2.965,18.332,4.823,29.564,5.571v-12.998
					c-13.902-1.187-24.505-3.25-31.798-6.191c-7.298-2.941-10.945-6.344-10.945-10.214c0-4.1,3.533-7.563,10.598-10.388
					c7.065-2.824,17.856-4.353,32.374-4.583V1649.93z M1315.463,1675.117v-9.518c-7.104,0.825-10.657,2.361-10.657,4.605
					C1304.806,1672.627,1308.358,1674.264,1315.463,1675.117z M1334.37,1688.811v10.058c7.868-0.669,11.807-2.333,11.807-4.989
					C1346.177,1691.454,1342.238,1689.765,1334.37,1688.811z"/>
			</g>
			<path style="opacity:0.4;fill:#FFF3CE;" d="M1226.111,1717.714c65.639-22.212,131.288-44.421,197.1-66.573
				c-5.782-2.123-12.124-4.071-18.961-5.804c-65.287,21.929-130.46,43.895-195.519,65.899
				C1213.923,1713.575,1219.75,1715.742,1226.111,1717.714z"/>
			<path style="opacity:0.4;fill:#FFF3CE;" d="M1446.369,1662.695c-4.682-3.3-10.439-6.389-17.168-9.208
				c-65.49,22.046-130.817,44.146-196.134,66.248c8.438,2.294,17.698,4.254,27.587,5.842
				C1322.628,1704.639,1384.55,1683.685,1446.369,1662.695z"/>
		</g>
		<g>
			<path style="fill:#F9A65D;" d="M1471.217,1645.827c-27.39-18.76-84.596-31.67-150.74-31.67c-66.149,0-123.35,12.91-150.75,31.67
				h-17.509v25.038h0.278c0,31.318,75.206,56.708,167.981,56.708c92.771,0,167.972-25.39,167.972-56.708v-25.038H1471.217z"/>
			<ellipse style="fill:#FEC463;" cx="1320.472" cy="1646.095" rx="167.976" ry="56.708"/>
			<g>
				<path style="fill:#FFD686;" d="M1460.029,1646.095c0,26.019-62.483,47.111-139.557,47.111
					c-77.069,0-139.547-21.092-139.547-47.111c0-26.02,62.478-47.111,139.547-47.111
					C1397.547,1598.984,1460.029,1620.076,1460.029,1646.095z"/>
				<path style="fill:#FFDA67;" d="M1206.016,1687.593c79.046-26.743,158.062-53.49,237.351-80.149
					c-5.822-2.108-12.094-4.068-18.793-5.856c-78.858,26.473-157.567,52.997-236.103,79.579
					C1193.822,1683.46,1199.693,1685.606,1206.016,1687.593z"/>
				<path style="fill:#FFDA67;" d="M1467.412,1618.629c-5.182-3.149-11.188-6.119-17.976-8.864
					c-79.021,26.567-157.775,53.225-236.544,79.874c8.255,2.326,17.193,4.38,26.676,6.144
					C1315.612,1670.098,1391.596,1644.393,1467.412,1618.629z"/>
				<path style="fill:#FFD686;" d="M1460.029,1646.095c0,26.019-62.483,47.111-139.557,47.111
					c-77.069,0-139.547-21.092-139.547-47.111c0-26.02,62.478-47.111,139.547-47.111
					C1397.547,1598.984,1460.029,1620.076,1460.029,1646.095z"/>
				<path style="fill:#FFD686;" d="M1396.615,1606.621c-21.899-4.826-48.04-7.638-76.143-7.638
					c-77.069,0-139.547,21.092-139.547,47.111c0,9.458,8.284,18.26,22.504,25.64
					C1267.72,1649.994,1332.111,1628.291,1396.615,1606.621z"/>
				<path style="fill:#FFD686;" d="M1269.682,1689.976c15.746,2.081,32.869,3.23,50.79,3.23c77.075,0,139.557-21.092,139.557-47.111
					c0-6.102-3.468-11.926-9.716-17.277C1390.179,1649.231,1329.96,1669.612,1269.682,1689.976z"/>
				<path style="fill:#FAA955;" d="M1186.955,1649.293c0-26.019,62.478-47.111,139.547-47.111c47.505,0,89.431,8.017,114.635,20.257
					c-24.174-14.024-69.142-23.455-120.665-23.455c-77.069,0-139.547,21.092-139.547,47.111c0,9.983,9.225,19.234,24.912,26.854
					C1193.852,1665.995,1186.955,1657.919,1186.955,1649.293z"/>
			</g>
			<g>
				<path style="fill:#FEC463;" d="M1315.691,1613.011h19.026v5.299c15.359,0.491,28.648,2.465,39.88,5.921l-20.973,8.819
					c-7.64-2.165-14.056-3.521-19.254-4.06v11.18c29.108,2.992,43.66,8.537,43.66,16.635c0,4.075-3.701,7.506-11.109,10.291
					c-7.412,2.787-18.342,4.618-32.78,5.495v6.731h-18.679v-6.654h-3.091c-7.031,0-15.245-0.672-24.64-2.012
					c-9.399-1.341-16.692-3.057-21.889-5.146l20.056-8.472c8.477,2.965,18.332,4.823,29.564,5.571v-13.001
					c-13.902-1.184-24.505-3.248-31.798-6.188c-7.298-2.941-10.945-6.344-10.945-10.214c0-4.1,3.533-7.563,10.598-10.387
					c7.065-2.824,17.856-4.353,32.374-4.586V1613.011z M1315.463,1638.195v-9.515c-7.104,0.825-10.657,2.359-10.657,4.603
					C1304.806,1635.708,1308.358,1637.345,1315.463,1638.195z M1334.37,1651.892v10.058c7.868-0.669,11.807-2.334,11.807-4.989
					C1346.177,1654.535,1342.238,1652.845,1334.37,1651.892z"/>
			</g>
			<g>
				<path style="fill:#F9A65D;" d="M1311.103,1613.011h19.016v5.299c15.36,0.491,28.653,2.465,39.885,5.921l-20.978,8.819
					c-7.635-2.165-14.052-3.521-19.244-4.06v11.18c29.103,2.992,43.66,8.537,43.66,16.635c0,4.075-3.706,7.506-11.118,10.291
					c-7.412,2.787-18.332,4.618-32.775,5.495v6.731h-18.684v-6.654h-3.092c-7.026,0-15.24-0.672-24.634-2.012
					c-9.399-1.341-16.698-3.057-21.89-5.146l20.056-8.472c8.477,2.965,18.332,4.823,29.56,5.571v-13.001
					c-13.903-1.184-24.506-3.248-31.799-6.188s-10.94-6.344-10.94-10.214c0-4.1,3.528-7.563,10.598-10.387
					c7.065-2.824,17.857-4.353,32.379-4.586V1613.011z M1310.865,1638.195v-9.515c-7.1,0.825-10.652,2.359-10.652,4.603
					C1300.213,1635.708,1303.765,1637.345,1310.865,1638.195z M1329.782,1651.892v10.058c7.863-0.669,11.802-2.334,11.802-4.989
					C1341.584,1654.535,1337.645,1652.845,1329.782,1651.892z"/>
			</g>
			<g>
				<path style="fill:#FEC463;" d="M1315.691,1613.011h19.026v5.299c15.359,0.491,28.648,2.465,39.88,5.921l-20.973,8.819
					c-7.64-2.165-14.056-3.521-19.254-4.06v11.18c29.108,2.992,43.66,8.537,43.66,16.635c0,4.075-3.701,7.506-11.109,10.291
					c-7.412,2.787-18.342,4.618-32.78,5.495v6.731h-18.679v-6.654h-3.091c-7.031,0-15.245-0.672-24.64-2.012
					c-9.399-1.341-16.692-3.057-21.889-5.146l20.056-8.472c8.477,2.965,18.332,4.823,29.564,5.571v-13.001
					c-13.902-1.184-24.505-3.248-31.798-6.188c-7.298-2.941-10.945-6.344-10.945-10.214c0-4.1,3.533-7.563,10.598-10.387
					c7.065-2.824,17.856-4.353,32.374-4.586V1613.011z M1315.463,1638.195v-9.515c-7.104,0.825-10.657,2.359-10.657,4.603
					C1304.806,1635.708,1308.358,1637.345,1315.463,1638.195z M1334.37,1651.892v10.058c7.868-0.669,11.807-2.334,11.807-4.989
					C1346.177,1654.535,1342.238,1652.845,1334.37,1651.892z"/>
			</g>
			<path style="opacity:0.4;fill:#FFF3CE;" d="M1226.111,1680.795c65.639-22.211,131.288-44.421,197.1-66.573
				c-5.782-2.123-12.124-4.07-18.961-5.807c-65.287,21.929-130.46,43.898-195.519,65.902
				C1213.923,1676.655,1219.75,1678.822,1226.111,1680.795z"/>
			<path style="opacity:0.4;fill:#FFF3CE;" d="M1446.369,1625.776c-4.682-3.3-10.439-6.389-17.168-9.208
				c-65.49,22.046-130.817,44.146-196.134,66.249c8.438,2.294,17.698,4.253,27.587,5.841
				C1322.628,1667.719,1384.55,1646.764,1446.369,1625.776z"/>
		</g>
		<g>
			<path style="fill:#F9A65D;" d="M1471.217,1612.265c-27.39-18.761-84.596-31.67-150.74-31.67
				c-66.149,0-123.35,12.909-150.75,31.67h-17.509v25.038h0.278c0,31.318,75.206,56.708,167.981,56.708
				c92.771,0,167.972-25.39,167.972-56.708v-25.038H1471.217z"/>
			<path style="fill:#FEC463;" d="M1488.449,1612.532c0,31.318-75.201,56.706-167.977,56.706
				c-92.77,0-167.976-25.387-167.976-56.706c0-31.32,75.206-56.71,167.976-56.71
				C1413.248,1555.822,1488.449,1581.212,1488.449,1612.532z"/>
			<g>
				<path style="fill:#FFD686;" d="M1460.029,1612.532c0,26.017-62.483,47.111-139.557,47.111
					c-77.069,0-139.547-21.094-139.547-47.111c0-26.019,62.478-47.113,139.547-47.113
					C1397.547,1565.419,1460.029,1586.513,1460.029,1612.532z"/>
				<path style="fill:#FFDA67;" d="M1206.016,1654.027c79.046-26.74,158.062-53.49,237.351-80.146
					c-5.822-2.109-12.094-4.068-18.793-5.856c-78.858,26.472-157.567,52.997-236.103,79.578
					C1193.822,1649.895,1199.693,1652.04,1206.016,1654.027z"/>
				<path style="fill:#FFDA67;" d="M1467.412,1585.067c-5.182-3.149-11.188-6.119-17.976-8.867
					c-79.021,26.569-157.775,53.225-236.544,79.876c8.255,2.326,17.193,4.38,26.676,6.144
					C1315.612,1636.535,1391.596,1610.828,1467.412,1585.067z"/>
				<path style="fill:#FFD686;" d="M1460.029,1612.532c0,26.017-62.483,47.111-139.557,47.111
					c-77.069,0-139.547-21.094-139.547-47.111c0-26.019,62.478-47.113,139.547-47.113
					C1397.547,1565.419,1460.029,1586.513,1460.029,1612.532z"/>
				<path style="fill:#FFD686;" d="M1396.615,1573.059c-21.899-4.826-48.04-7.64-76.143-7.64
					c-77.069,0-139.547,21.094-139.547,47.113c0,9.459,8.284,18.261,22.504,25.64
					C1267.72,1616.432,1332.111,1594.725,1396.615,1573.059z"/>
				<path style="fill:#FFD686;" d="M1269.682,1656.413c15.746,2.078,32.869,3.228,50.79,3.228
					c77.075,0,139.557-21.092,139.557-47.109c0-6.101-3.468-11.926-9.716-17.276
					C1390.179,1615.669,1329.96,1636.05,1269.682,1656.413z"/>
				<path style="fill:#FAA955;" d="M1186.955,1615.73c0-26.019,62.478-47.111,139.547-47.111c47.505,0,89.431,8.016,114.635,20.254
					c-24.174-14.021-69.142-23.455-120.665-23.455c-77.069,0-139.547,21.094-139.547,47.113c0,9.981,9.225,19.234,24.912,26.854
					C1193.852,1632.433,1186.955,1624.354,1186.955,1615.73z"/>
			</g>
			<g>
				<path style="fill:#FEC463;" d="M1315.691,1579.448h19.026v5.299c15.359,0.49,28.648,2.462,39.88,5.918l-20.973,8.821
					c-7.64-2.165-14.056-3.52-19.254-4.062v11.182c29.108,2.992,43.66,8.537,43.66,16.635c0,4.075-3.701,7.504-11.109,10.291
					c-7.412,2.784-18.342,4.615-32.78,5.495v6.731h-18.679v-6.654h-3.091c-7.031,0-15.245-0.671-24.64-2.011
					c-9.399-1.343-16.692-3.057-21.889-5.146l20.056-8.475c8.477,2.968,18.332,4.826,29.564,5.571v-12.998
					c-13.902-1.184-24.505-3.25-31.798-6.191c-7.298-2.938-10.945-6.344-10.945-10.212c0-4.103,3.533-7.566,10.598-10.388
					c7.065-2.826,17.856-4.353,32.374-4.585V1579.448z M1315.463,1604.632v-9.515c-7.104,0.825-10.657,2.359-10.657,4.603
					C1304.806,1602.142,1308.358,1603.782,1315.463,1604.632z M1334.37,1618.327v10.06c7.868-0.671,11.807-2.333,11.807-4.989
					C1346.177,1620.973,1342.238,1619.283,1334.37,1618.327z"/>
			</g>
			<g>
				<path style="fill:#F9A65D;" d="M1311.103,1579.448h19.016v5.299c15.36,0.49,28.653,2.462,39.885,5.918l-20.978,8.821
					c-7.635-2.165-14.052-3.52-19.244-4.062v11.182c29.103,2.992,43.66,8.537,43.66,16.635c0,4.075-3.706,7.504-11.118,10.291
					c-7.412,2.784-18.332,4.615-32.775,5.495v6.731h-18.684v-6.654h-3.092c-7.026,0-15.24-0.671-24.634-2.011
					c-9.399-1.343-16.698-3.057-21.89-5.146l20.056-8.475c8.477,2.968,18.332,4.826,29.56,5.571v-12.998
					c-13.903-1.184-24.506-3.25-31.799-6.191c-7.293-2.938-10.94-6.344-10.94-10.212c0-4.103,3.528-7.566,10.598-10.388
					c7.065-2.826,17.857-4.353,32.379-4.585V1579.448z M1310.865,1604.632v-9.515c-7.1,0.825-10.652,2.359-10.652,4.603
					C1300.213,1602.142,1303.765,1603.782,1310.865,1604.632z M1329.782,1618.327v10.06c7.863-0.671,11.802-2.333,11.802-4.989
					C1341.584,1620.973,1337.645,1619.283,1329.782,1618.327z"/>
			</g>
			<g>
				<path style="fill:#FEC463;" d="M1315.691,1579.448h19.026v5.299c15.359,0.49,28.648,2.462,39.88,5.918l-20.973,8.821
					c-7.64-2.165-14.056-3.52-19.254-4.062v11.182c29.108,2.992,43.66,8.537,43.66,16.635c0,4.075-3.701,7.504-11.109,10.291
					c-7.412,2.784-18.342,4.615-32.78,5.495v6.731h-18.679v-6.654h-3.091c-7.031,0-15.245-0.671-24.64-2.011
					c-9.399-1.343-16.692-3.057-21.889-5.146l20.056-8.475c8.477,2.968,18.332,4.826,29.564,5.571v-12.998
					c-13.902-1.184-24.505-3.25-31.798-6.191c-7.298-2.938-10.945-6.344-10.945-10.212c0-4.103,3.533-7.566,10.598-10.388
					c7.065-2.826,17.856-4.353,32.374-4.585V1579.448z M1315.463,1604.632v-9.515c-7.104,0.825-10.657,2.359-10.657,4.603
					C1304.806,1602.142,1308.358,1603.782,1315.463,1604.632z M1334.37,1618.327v10.06c7.868-0.671,11.807-2.333,11.807-4.989
					C1346.177,1620.973,1342.238,1619.283,1334.37,1618.327z"/>
			</g>
			<path style="opacity:0.4;fill:#FFF3CE;" d="M1226.111,1647.232c65.639-22.211,131.288-44.421,197.1-66.575
				c-5.782-2.123-12.124-4.067-18.961-5.804c-65.287,21.929-130.46,43.895-195.519,65.901
				C1213.923,1643.093,1219.75,1645.257,1226.111,1647.232z"/>
			<path style="opacity:0.4;fill:#FFF3CE;" d="M1446.369,1592.211c-4.682-3.297-10.439-6.389-17.168-9.206
				c-65.49,22.045-130.817,44.146-196.134,66.248c8.438,2.292,17.698,4.254,27.587,5.839
				C1322.628,1634.156,1384.55,1613.201,1446.369,1592.211z"/>
		</g>
	</g>
</g>
</svg>
